<?xml version="1.0" encoding="UTF-8" standalone="no"?>
<!-- Created with Inkscape (http://www.inkscape.org/) -->

<svg
   width="79.111015mm"
   height="96.899498mm"
   viewBox="0 0 79.111015 96.899498"
   version="1.1"
   id="svg5"
   xml:space="preserve"
   inkscape:version="1.2.1 (9c6d41e410, 2022-07-14)"
   sodipodi:docname="acesso-login.svg"
   xmlns:inkscape="http://www.inkscape.org/namespaces/inkscape"
   xmlns:sodipodi="http://sodipodi.sourceforge.net/DTD/sodipodi-0.dtd"
   xmlns="http://www.w3.org/2000/svg"
   xmlns:svg="http://www.w3.org/2000/svg"><sodipodi:namedview
     id="namedview7"
     pagecolor="#ffffff"
     bordercolor="#000000"
     borderopacity="0.25"
     inkscape:showpageshadow="2"
     inkscape:pageopacity="0.0"
     inkscape:pagecheckerboard="0"
     inkscape:deskcolor="#d1d1d1"
     inkscape:document-units="px"
     showgrid="false"
     inkscape:zoom="2.1257082"
     inkscape:cx="165.12144"
     inkscape:cy="179.23438"
     inkscape:window-width="1920"
     inkscape:window-height="1027"
     inkscape:window-x="-8"
     inkscape:window-y="-8"
     inkscape:window-maximized="1"
     inkscape:current-layer="layer1" /><defs
     id="defs2"><pattern
       id="EMFhbasepattern"
       patternUnits="userSpaceOnUse"
       width="6"
       height="6"
       x="0"
       y="0" /><pattern
       id="EMFhbasepattern-7"
       patternUnits="userSpaceOnUse"
       width="6"
       height="6"
       x="0"
       y="0" /></defs><g
     inkscape:label="Camada 1"
     inkscape:groupmode="layer"
     id="layer1"
     transform="translate(-62.102551,-58.167238)"><path
       style="fill:#131921;fill-opacity:1;fill-rule:evenodd;stroke:none;stroke-width:0.264583"
       d="m 133.29586,101.54401 c 1.02034,2.29875 2.07068,4.57752 3.32109,6.74635 0.84027,1.44921 1.37045,2.16882 1.61053,3.93786 0.05,0.35981 0.07,0.70962 0.07,1.06942 1.50049,2.9684 2.36077,5.24716 2.81092,8.74527 0.13004,1.04943 0.15005,2.06888 0,3.11831 -0.02,0.14992 -0.05,0.30983 -0.07,0.43976 -0.03,0.51972 0.03,1.05943 -0.01,1.59913 -0.16005,2.26878 -1.05034,4.19773 -2.48081,5.86683 0.83027,1.14938 1.32043,2.52863 1.36045,4.02782 0.05,1.60913 -0.40014,3.17828 -1.34044,4.47757 0.07,0.93949 -0.03,1.87898 -0.31011,2.80848 -0.27008,0.87952 -0.67021,1.67909 -1.21039,2.38871 0.03,4.48757 -3.64119,7.79578 -8.31272,7.79578 h -0.38013 l -6.92226,-0.72961 -0.17006,-0.03 c -3.44113,-0.52972 -6.53214,-1.68909 -8.31272,-4.88736 -0.27009,-0.47974 -0.49016,-0.96947 -0.66022,-1.4792 -3.50114,-0.19989 -7.01229,-0.33981 -10.53345,-0.42976 -3.411113,-0.0899 -6.832234,-0.13993 -10.253354,-0.0899 -0.200065,0.01 -0.410134,0.01 -0.610201,0.02 -0.520168,1.70907 -1.500489,3.21825 -2.870939,4.39762 -2.700885,2.32873 -6.552146,2.71852 -9.953259,2.98838 -0.520171,0.04 -1.090357,0.03 -1.600524,0.11993 -0.240079,0.04 -0.540177,0.15992 -0.780256,0.23987 -3.111018,0.9395 -6.4121,0.14992 -8.472774,-2.43868 -1.360446,-1.71906 -1.8306,-3.70799 -1.550508,-5.73689 -0.590193,-0.90951 -0.990324,-1.92896 -1.150377,-3.02836 -0.06002,-0.43976 -0.09003,-0.87952 -0.08003,-1.30929 -2.170711,-2.70855 -2.26074,-6.51648 -0.05002,-9.245 -1.880616,-2.47866 -2.280747,-5.64695 -2.280747,-9.10507 0,-4.30767 0.410134,-6.37655 2.250737,-10.29443 l 0.03001,-0.07 0.04001,-0.08 c 0.07002,-0.13992 0.140046,-0.26985 0.220072,-0.40978 0.07002,-1.81901 0.800262,-3.46812 1.810593,-5.03727 0.970318,-1.48919 2.050671,-3.01836 2.760904,-4.65748 1.580517,-3.66801 2.770907,-7.525921 5.581828,-10.514302 2.570841,-2.718528 6.452112,-4.35764 9.973265,-5.79686 -0.58019,-1.199351 -0.940308,-2.488652 -1.19039,-3.797944 -0.390127,-1.958939 -0.900294,-3.74797 -0.690226,-5.776871 0.12004,-1.229334 0.450148,-2.318744 1.060348,-3.328198 0.360118,-2.868446 1.280419,-6.376546 2.820924,-8.675301 2.08068,-3.068339 5.091668,-5.167202 8.602815,-6.306585 3.161036,-1.039437 8.162679,-1.249323 11.363719,-0.309832 2.15071,0.629659 4.68154,1.93895 6.37209,3.408154 3.02099,2.618582 4.14136,5.537001 5.04165,9.314955 0.22007,0.909508 0.38013,1.819015 0.49016,2.748512 0.58019,1.099405 0.89029,2.278766 1.07035,3.538084 0.20007,1.449215 0.14005,2.828468 -0.25008,4.207721 2.16071,-0.639654 4.48147,-0.439762 6.49213,0.559697 1.76057,-0.509724 3.6612,-0.449757 5.42177,0.169908 4.63152,1.609128 7.08232,6.686378 5.46179,11.313872 -0.56018,1.609129 -1.43047,3.148295 -2.34077,4.577522 -0.41013,0.659643 -0.84027,1.299297 -1.31043,1.908968 0.05,0.33981 0.09,0.68962 0.11004,1.02944 z"
       id="path2099" /><path
       style="fill:#fefefe;fill-opacity:1;fill-rule:evenodd;stroke:none;stroke-width:0.264583"
       d="m 115.80013,91.669359 c 0.71023,-0.409779 1.55051,-0.589682 2.39079,-0.499732 -0.33011,-1.52917 0.37012,-3.238246 2.04066,-4.097779 1.89062,-0.969476 4.20138,-0.229875 5.1817,1.639112 0.90029,-1.21934 2.57084,-1.858994 4.30141,-1.249323 2.01066,0.69962 3.071,2.898429 2.37077,4.917337 -0.40013,1.139383 -1.20039,2.528631 -1.8406,3.548079 -0.75024,1.189355 -1.86061,2.818473 -3.25106,3.458127 0.37012,0.21988 0.67022,0.529712 0.9103,0.96947 0.3301,0.63966 0.42013,1.51918 0.38012,2.26878 1.24041,2.83846 2.41079,5.47703 3.9713,8.17557 0.43014,0.7396 0.86028,1.19935 0.99032,2.10885 0.06,0.45976 0.01,0.90951 -0.13004,1.32929 0.11004,0.19989 0.23008,0.40977 0.3101,0.57968 1.57052,3.02836 2.25074,4.41761 2.69089,7.86574 0.08,0.60967 0.10003,1.15938 0.01,1.76904 -0.04,0.26986 -0.09,0.52972 -0.11004,0.80957 -0.03,0.51971 0.03,1.03943 -0.01,1.56915 -0.10003,1.42922 -0.76025,2.49864 -1.76058,3.48811 -1.04034,1.01944 -2.30075,1.67909 -3.74122,1.89897 -0.9203,0.13992 -1.8406,0.0999 -2.7409,-0.07 0.11004,0.3598 0.17006,0.7396 0.18006,1.12938 0,0.07 0,0.13993 0,0.1999 0.64021,0.21988 1.40046,0.42976 1.88062,0.56969 1.09036,0.31982 2.4408,0.63965 3.48114,1.06942 0.89029,0.3698 1.5405,1.11939 1.58051,2.12885 0.04,1.57914 -1.13037,2.08886 -2.25073,2.62857 0.68022,0.87953 1.15037,1.89897 0.80026,3.04835 -0.3001,0.99946 -1.05034,1.56915 -1.92063,1.93895 0.09,0.19989 0.17005,0.39978 0.24008,0.59968 0.88029,2.37871 -0.58019,4.07779 -3.02099,4.07779 h -0.11004 l -6.54214,-0.68963 -0.05,-0.01 c -1.74058,-0.26985 -3.75123,-0.68963 -4.69154,-2.36872 -0.65021,-1.17936 -0.51017,-2.45867 -0.32011,-3.72798 -0.20006,-0.02 -0.39012,-0.03 -0.55018,-0.05 -1.28042,-0.10994 -2.57084,-0.19989 -3.85126,-0.26986 -3.57117,-0.20988 -7.15234,-0.33981 -10.73351,-0.43976 -3.481142,-0.09 -6.982289,-0.13992 -10.463428,-0.09 -1.260414,0.02 -2.540833,0.06 -3.801245,0.14992 -0.350114,0.02 -0.930304,0.06 -1.390455,0.12993 -0.05002,0.05 -0.100032,0.10994 -0.160052,0.14992 0.140046,0.97947 0.300098,1.82901 0.08003,2.84846 -0.200065,0.93949 -0.690226,1.73905 -1.420465,2.35872 -1.600524,1.37925 -4.991635,1.61912 -7.072316,1.77903 -0.64021,0.06 -1.380452,0.07 -2.010658,0.16991 -0.460151,0.08 -0.980321,0.25986 -1.420465,0.38979 -1.110364,0.33982 -2.300754,0.20989 -3.071006,-0.74959 -0.980321,-1.23933 -0.430141,-2.72852 0.240078,-3.92787 0.05002,-0.09 0.100033,-0.17991 0.15005,-0.25987 -0.02,-0.01 -0.04001,-0.02 -0.06002,-0.02 -1.000327,-0.3598 -1.830599,-1.04943 -1.990652,-2.16882 -0.140045,-0.93949 0.260085,-1.64911 0.800262,-2.30875 -0.570186,-0.28985 -1.10036,-0.61967 -1.59052,-1.04943 -1.090358,-0.95948 -1.260413,-2.51864 -0.170056,-3.54808 1.010331,-0.94949 3.111019,-1.41923 4.451457,-1.74906 0.340112,-0.09 0.960315,-0.22987 1.540505,-0.38978 -0.02001,-0.08 -0.03001,-0.15992 -0.04001,-0.23987 -0.04001,-0.31983 -0.04001,-0.60967 0.01,-0.88952 -1.520498,-0.11994 -3.121022,-0.59968 -4.401442,-1.2893 -2.910953,-1.56916 -2.960969,-4.56753 -2.960969,-7.45597 0,-3.81793 0.160052,-4.71744 1.77058,-8.15558 l 0.01,-0.02 0.01,-0.03 c 0.240079,-0.46975 0.600197,-0.97947 0.880289,-1.45921 -0.390128,-1.24932 0.120039,-2.32874 0.880288,-3.48811 1.150377,-1.79902 2.300753,-3.42814 3.151032,-5.40707 1.220399,-2.82847 2.520825,-6.816311 4.621513,-9.045102 2.130698,-2.258777 6.572152,-3.917879 9.463099,-5.107234 1.19039,-0.489736 1.410462,-0.62966 2.740898,-0.549703 0.01,0 0.02,0 0.03001,0 0.120038,-0.05997 0.330107,-0.199893 0.450148,-0.279848 0.09003,-0.579686 0.320104,-1.67909 0.270087,-2.15883 -0.480158,-0.569693 -0.680223,-1.059429 -0.770252,-1.71907 -0.330108,-0.219881 -0.600197,-0.479739 -0.880288,-0.859535 -0.690226,-0.939491 -1.030337,-2.228793 -1.25041,-3.358181 -0.240079,-1.229335 -0.740243,-3.098322 -0.620203,-4.297673 0.100033,-0.929496 0.410134,-1.389247 0.960314,-1.958939 0,-0.219881 0.01,-0.429767 0.03001,-0.639653 0.190063,-2.06888 0.910298,-5.377088 2.070679,-7.086163 1.440471,-2.148836 3.541159,-3.548078 5.981959,-4.347645 2.170711,-0.709616 6.192034,-0.909508 8.382744,-0.259859 1.41047,0.409778 3.38111,1.419231 4.49147,2.378711 2.16071,1.868988 2.81092,4.00783 3.45113,6.686379 0.2801,1.179361 0.41014,2.098863 0.45015,3.258236 0.64021,0.709615 0.87029,1.519177 1.02034,2.548619 0.12004,0.919502 0.07,1.719069 -0.25008,2.588598 -0.23008,0.629659 -0.41014,0.899513 -0.47016,1.599134 -0.10003,1.099405 -0.45015,2.108859 -1.20039,2.928414 -0.25008,0.27985 -0.48016,0.459751 -0.73024,0.639654 0,0.02998 0.01,0.05997 0.01,0.07996 0.03,0.689626 -0.14005,1.339273 -0.57019,1.819016 0.01,0.129929 0.01,0.259858 0,0.399783 0,0.309832 -0.13004,0.93949 -0.11003,1.199351 0,0.01 0.01,0.01 0.01,0.01998 1.36044,0.719608 2.94096,1.349269 4.38144,1.928955 z"
       id="path2101" /><path
       style="fill:#00632e;fill-opacity:1;fill-rule:evenodd;stroke:none;stroke-width:0.264583"
       d="m 70.125176,137.77439 c 2.7815,0.91413 3.995713,2.50828 1.484861,4.65404 2.190536,0.66099 3.759116,1.82028 1.59986,3.89972 -1.447606,3.17438 4.016847,0.0478 5.675804,0.72871 3.783044,0.36913 6.229401,-2.39521 5.094634,-6.01237 2.847407,-1.97386 6.770675,-0.99009 10.098687,-1.3142 8.300828,0.14482 16.664228,0.0892 24.902148,1.16241 0.0423,2.61622 -0.23163,6.34176 3.79849,5.87129 2.20168,0.15653 4.40296,0.63234 6.60492,0.56866 1.70443,-1.29502 -2.97325,-4.3403 0.88291,-4.28897 3.33581,-0.93958 -3.09423,-3.99072 1.0576,-4.90324 3.55088,-1.52824 -3.12244,-1.87237 -4.3383,-2.75195 -2.24591,-0.69997 -0.54226,-4.66412 -3.98751,-4.64732 -5.69282,-1.54081 -11.71571,-1.48312 -17.59106,-1.88681 -7.86124,-0.19803 -15.839653,-0.1617 -23.568868,1.37257 -2.696452,0.58794 -6.09325,1.97096 -4.958262,4.84505 -1.863759,1.26686 -5.957631,0.86388 -6.755914,2.70241 z M 85.460197,98.985395 c -3.993826,2.751445 -0.764254,6.466715 0.589099,9.447445 -0.276418,2.79811 0.818321,5.1097 2.495661,4.07648 0.461823,0.16993 0.150895,-3.02124 0.566434,-0.20364 2.544725,0.55177 -0.759642,-5.36693 1.691006,-6.86236 3.321287,-1.54677 -1.430145,-9.784934 -1.442485,-4.29726 0.493393,3.19909 -5.465612,1.51548 -3.27853,-1.41023 0.01984,-0.281227 0.04903,-1.415053 -0.621185,-0.750435 z m 0.190063,0.489736 c -0.254425,0.728909 -0.390439,3.947439 -0.15005,2.638569 -0.118507,-0.56381 0.483607,-2.647951 0.15005,-2.638569 z m 3.781239,12.563199 c 0.714553,-1.68035 -0.600997,-6.10249 1.895756,-8.08914 0.860472,-1.91409 -1.738986,-6.502283 -0.302579,-2.10458 -0.453691,3.53777 -2.839975,6.17501 -1.593177,10.19372 z m 30.169881,-6.04673 c 0.19438,-5.00749 6.77347,1.71099 6.54083,-3.54876 -0.4664,-2.642583 -4.92661,-1.20059 -6.72918,-3.184936 -3.624,-1.002879 -8.40008,0.743466 -10.0121,4.013956 2.66169,-0.89266 7.75435,-2.31244 6.42921,2.33995 0.44606,1.07525 -0.48223,2.6256 -0.58707,3.89129 -0.54715,1.0935 -0.12387,3.27132 -1.35749,3.59778 -1.99624,-0.15573 -1.739,0.49679 -0.95639,0.72396 -1.36411,-0.45371 -0.64065,2.2881 -0.34857,0.43161 -0.0625,1.25568 2.73348,1.27375 0.21211,1.78525 -2.00182,-0.21751 -1.68132,2.38763 -1.04019,1.5298 -0.26384,0.19951 1.24585,0.46837 1.28667,1.50293 -2.28163,-0.0474 -1.49178,2.37233 -0.71523,1.74404 -0.089,1.61157 -0.47487,3.47186 -0.89656,5.26247 -0.33209,2.65582 4.05221,2.13224 3.46071,-0.48745 0.31507,-2.64172 2.91808,0.362 0.14172,0.35721 0.21693,3.87461 -5.49017,1.76002 -3.53294,-1.12604 -0.46987,-2.45037 -1.34207,-5.21235 -0.68845,-7.93905 -1.21341,-2.56688 -1.01128,-5.06269 2.39454,-4.50756 2.62471,-0.2123 1.54885,-4.68409 1.39141,-6.60539 -1.32253,-1.88152 -0.29511,-4.45033 -3.29204,-2.73081 -2.06486,0.27341 -1.89744,2.48446 -3.59855,3.4936 -0.3194,1.59074 1.82775,2.72747 -1.14472,2.51018 -3.90908,0.0478 -7.99824,0.75278 -11.797857,-0.27017 1.486779,-2.57988 -2.742567,-4.79625 -0.561538,-7.24677 -0.879491,-2.500627 -2.037667,-4.726396 -3.220802,-7.236663 -0.549383,-2.188458 2.140592,-0.567706 2.730571,0.782653 2.292821,1.136548 3.637545,4.307236 6.761256,4.538828 3.4325,0.635012 5.95852,-1.943022 8.14452,-3.862708 1.32835,-0.589688 2.50871,-4.392531 3.47434,-1.850512 -0.99005,2.010027 -3.43071,7.756792 -2.24666,8.062572 1.96948,-2.294292 7.46127,-2.948087 5.96467,-6.615591 0.42914,-3.178283 -5.9795,-1.993751 -6.52104,-5.337422 0.68428,-1.126027 -1.26455,-4.735541 0.65977,-3.423457 0.71384,-2.782764 4.35801,-6.520467 1.76246,-9.65852 -0.32403,-4.055377 -1.21711,-9.137052 -5.57941,-10.725481 -4.44306,-1.82223 -10.51394,-0.925013 -13.406811,3.188937 -1.603139,3.134416 -1.747495,6.880989 -2.587114,9.965658 -0.06365,3.557351 2.576314,5.54989 3.415511,8.592104 0.972135,4.496387 -3.357335,4.660349 -6.358117,5.759244 -3.721032,1.477449 -7.923792,3.262247 -9.284786,7.405608 -1.584192,3.96214 -3.287167,7.87894 -5.806522,11.35499 0.126687,3.43989 -3.350944,6.32065 -2.819479,10.10528 -1.32157,4.63789 2.365881,8.95014 7.149707,7.76139 2.731429,0.68713 6.110577,-6.79935 6.800036,-2.10973 -0.130198,2.87121 4.855922,-0.16272 7.000666,0.40331 9.897779,-0.84976 19.853239,-0.0749 29.689009,1.11946 -0.50666,-2.20369 0.41685,-4.33707 2.54208,-2.18916 3.17465,2.06086 8.52942,4.41693 11.08347,0.21507 0.9608,-3.62147 0.39979,-7.67289 -1.49382,-10.95307 -1.19444,-3.36704 -2.19657,-6.55039 -4.16963,-9.81224 -0.63254,-1.74892 -2.45061,-5.38121 -1.43618,-1.57079 0.34647,1.55213 0.49499,6.9479 0.81774,2.36083 1.61735,1.31676 2.88093,5.03279 1.28213,5.46264 2.68067,-1.70646 2.03409,1.08272 -0.20319,1.26808 -1.48359,0.59997 -4.83382,2.52858 -5.28642,0.44414 1.44733,-0.50128 4.68913,-1.5743 1.37161,-0.77063 -4.61883,2.58691 -3.22001,-5.86368 -3.69877,-5.97696 0.0216,1.89992 -1.69111,5.02016 -1.18665,1.15437 -0.2639,0.55453 -1.03012,2.10478 -1.05472,-0.26189 -0.11337,-0.65594 -0.51345,2.34743 -0.74718,3.22765 2.31072,0.85177 3.94109,3.89398 3.96107,6.69052 0.2801,1.98534 0.6346,-0.48952 2.17036,0.99664 -1.18467,-0.83064 -2.93907,-2.58974 -0.39449,-1.04814 1.20793,1.17051 6.04197,2.33476 5.98684,1.72077 -1.63558,-0.62888 -4.10345,-1.39499 -0.71902,-1.68234 2.68781,-0.31565 -4.9488,0.54194 -1.3489,-1.98358 1.65909,-1.33034 2.42635,-1.59877 1.64867,0.79129 1.18133,1.07111 3.02324,4.08595 2.30872,4.98059 -1.6361,-2.01441 -4.51737,-1.74074 -6.81223,-2.47866 -4.72732,1.98965 -2.77048,-4.78427 -5.42147,-6.58972 -2.74402,0.21666 -1.26819,-2.18776 -1.13021,-3.77069 0.52193,-1.24297 -0.008,-3.4544 1.51972,-3.75492 l 0.0903,-0.2269 z m 5.55182,-4.19772 c -3.99013,-0.20603 -7.69067,-3.670124 -11.75385,-1.41924 2.55045,-2.139481 6.38533,-0.432927 9.2503,0.70066 0.75233,-0.26647 4.05639,1.21991 2.50355,0.71858 z m -1.41047,2.49864 c 2.20752,1.68349 2.0132,-4.319289 1.52393,-0.43976 -0.13585,0.75523 -0.9988,0.84907 -1.52393,0.43976 z m 5.26172,-14.811977 c 3.26174,1.891984 -2.40408,7.923978 -2.79543,7.527486 3.19086,-1.950745 -1.72731,-7.990792 2.79543,-7.527486 z m -7.79255,-0.509725 c 3.60809,-1.034568 4.09457,7.201278 3.52725,7.224525 0.78028,-3.65667 -6.98546,-4.262946 -3.52725,-7.224525 z m -5.05165,5.327116 c 2.17293,-3.077229 7.71643,3.064925 7.28238,3.419554 -1.68165,-3.348731 -8.11882,1.054993 -7.28238,-3.419554 z M 91.582201,136.67498 c -1.032195,1.98754 -1.730683,-1.85615 -3.450191,-0.42805 -0.438831,0.66683 -2.821929,2.90927 -1.873423,0.45558 0.570811,-1.62496 1.141621,-3.24993 1.712432,-4.8749 2.126495,-1.16054 2.108227,1.67504 2.85,2.93086 0.253727,0.63883 0.507455,1.27767 0.761182,1.91651 z m -2.87094,-3.90788 c -0.713279,1.45554 -1.267261,3.65912 0.806909,2.1621 -0.26897,-0.7207 -0.537939,-1.4414 -0.806909,-2.1621 z m 7.922596,3.11831 c -2.122748,3.33603 -6.730593,-1.2815 -3.821253,-3.90788 1.095236,-2.58721 5.9899,0.84259 2.477687,0.0614 -3.44222,0.3816 -1.998126,5.13001 1.343566,3.84651 z m 4.581493,0.32982 c -1.687433,1.42285 -4.678646,0.52031 -3.701206,-2.1786 0.177283,-1.09672 -0.66318,-3.3978 1.209591,-2.96597 1.917595,-0.61567 3.784075,1.18822 0.616183,0.88129 -2.013023,1.21317 0.968952,1.2574 1.514092,1.85088 -0.84518,0.4255 -3.005388,0.44933 -1.859545,1.97358 0.590538,0.22342 2.222585,-0.47336 2.220885,0.43882 z m 4.71155,-1.07941 c 0.0335,3.9068 -7.076942,-0.36949 -2.41814,0.76177 3.51638,-0.82712 -4.634889,-2.99829 -0.46646,-4.74012 2.13534,-1.13963 3.74264,2.22593 0.72811,0.76417 -2.09045,1.3067 2.74819,1.56359 2.15649,3.21418 z m 0.58019,1.21934 c -0.44668,-1.36251 4.6388,0.68811 1.90062,-1.6691 -4.3725,-0.99762 0.61102,-5.65219 1.80309,-2.29624 -0.61525,-0.15581 -3.75964,-0.26108 -1.48299,1.16685 4.18628,1.54954 0.35218,5.23807 -2.22072,2.79849 z m 10.61347,-1.18936 c 0.30059,4.43109 -6.99145,2.80185 -5.91379,-1.08364 0.26379,-3.85714 6.55562,-2.49004 5.91379,1.08364 z m -1.33043,-0.14992 c 0.0967,-4.2785 -5.3732,-1.29282 -2.6394,1.38489 1.19351,1.05746 2.84183,0.22962 2.6394,-1.38489 z m 9.39307,-34.21147 c -0.21032,-1.907772 -4.16964,-4.767919 -4.28488,-4.106448 1.1886,0.924159 -1.25547,4.766538 1.13385,2.036319 1.19603,-1.761431 1.4425,1.891669 2.7231,1.988689 0.14264,0.0271 0.28529,0.0543 0.42793,0.0814 z m -34.631336,7.07617 c 0.594466,-1.97095 6.264875,0.12965 2.691859,-1.21007 -0.687047,0.31232 -3.651728,-0.25366 -2.691859,1.21007 z m 27.318946,6.24661 c 2.51461,-0.22326 -1.51812,3.52176 0,0 z m -32.150527,0.1899 c -2.365496,-0.96558 0.437931,3.81029 0,0 z m 5.731876,-13.97243 c 2.326223,-1.38638 1.971053,2.02111 0.696113,2.233 -0.937758,3.00993 -2.81421,5.64999 -1.728946,9.02499 -0.860966,1.13438 2.463617,2.21268 0.572681,0.77551 4.043342,-1.70014 2.005322,2.8176 1.986431,4.93795 0.715217,3.21825 -0.346662,8.17859 -4.40441,8.17011 -3.79157,-1.65627 2.215015,-1.12252 2.769344,-3.17594 -0.41602,2.84143 1.48185,-2.08335 -1.387958,-0.66589 -2.527588,0.44673 -0.187704,-0.84058 -0.09956,-1.51215 -0.0104,2.44744 2.532778,-1.39648 1.796371,0.64137 3.554802,-3.2379 -6.698527,-1.64832 -2.133199,-2.59234 2.448522,0.0251 2.38836,-1.59183 2.952523,-1.11737 0.179424,-2.16942 -2.700398,-1.31094 -4.072094,-1.63705 -2.78754,-0.71029 3.516789,0.0992 2.885144,-1.71066 0.871401,1.72617 -0.05141,-1.9107 -2.099994,-0.76904 -3.652425,-0.12277 -7.179984,1.53964 -7.225001,5.63044 -0.278927,3.55299 -4.947993,0.65798 -7.101996,2.84624 -1.298324,0.33799 -4.744422,3.03775 -2.870334,-0.0982 1.43769,-1.78903 4.072321,-3.60804 1.438987,-5.7292 3.700871,0.76866 2.451702,3.86079 2.004287,3.74717 3.596144,0.72557 -6.565511,2.86977 -1.731698,1.85476 2.182987,0.0774 6.398843,-2.75543 6.907259,-2.39933 -2.172956,1.67705 -1.062229,0.96898 0.595511,0.73132 -0.03983,-3.08027 1.356404,-7.0804 5.068846,-7.2122 -2.388987,-0.46457 0.130482,-7.94564 -2.407038,-5.26845 -2.569539,-1.18611 -3.101571,3.56316 -5.504302,2.42681 -1.009796,-2.89688 -0.179486,-6.32744 0.749639,-9.07678 1.02541,-3.243663 2.680778,-1.315951 3.814707,1.0513 1.686472,0.71446 -3.565209,-5.046544 0.503166,-5.251281 2.340331,-1.901917 3.866508,0.41934 4.684802,2.707449 0.801352,1.340232 1.117359,4.313232 1.098742,1.196262 -0.114982,-2.497028 1.785655,-0.973425 2.241981,0.24116 z m 0.570187,1.48919 c 3.055154,-0.48831 -1.567561,-3.079215 0,0 z m -15.425051,34.47133 c 2.159238,-0.23278 -1.447927,0.83785 1.13037,0.66965 -1.768531,0.98486 1.086162,0.40434 -0.180059,1.33927 1.243437,0.0898 -0.380863,0.84562 0.674909,1.13064 -1.952462,0.55653 1.462662,0.0793 -0.56878,1.0841 2.060298,0.27969 -1.312063,0.83022 0.994232,1.01352 -1.904881,0.72042 1.446644,0.53213 -1.075978,1.21934 3.246829,-0.0282 -2.038208,1.08747 1.258694,0.89121 -1.867455,0.85115 0.129027,0.29403 1.39999,0.63828 -1.746135,-0.06 -3.692771,1.24619 -0.65459,0.74287 3.743544,-0.27441 -4.383807,0.96305 0.399233,0.64632 2.70894,-0.22781 1.740245,0.25824 -0.16893,0.25869 -1.799357,0.0752 -3.621389,0.68273 -5.384299,0.6156 0.546496,-1.63176 3.147113,-3.74882 -0.361563,-3.93564 -3.342584,-0.65911 3.221126,-2.99318 -0.274153,-3.74531 -4.618435,-1.53949 1.382534,-2.01799 2.810924,-2.56854 z m 48.715955,-3.38816 c -2.06356,-0.78473 -0.84989,-0.66712 -0.16005,0.7396 -1.00636,-0.69111 -3.46234,-1.40642 -0.90687,-0.20442 2.58574,1.59963 -3.32648,-1.18516 -0.37168,0.57824 3.24311,1.88119 -3.39158,-1.17893 0.0531,0.73559 2.64085,1.7064 -3.82348,-1.39028 -0.0974,0.53158 1.85425,1.5513 -3.11717,-0.94149 0.0642,0.95214 1.38849,1.13786 -3.15571,-1.12781 -0.23617,0.50831 1.02913,1.11038 -3.03248,-0.97479 -0.28462,0.45539 0.94124,0.87484 -2.3254,-0.47378 -0.001,0.69977 1.73307,1.45335 -3.57722,-0.93067 -0.51658,0.63075 2.75282,1.42429 -3.24334,-0.99184 -0.40263,0.42852 3.62162,1.79996 -3.52611,-0.87646 0.16287,0.7852 2.82256,1.53905 -3.9875,-1.1321 -0.64426,0.41378 4.08696,1.77609 -3.97314,0.27708 -1.43048,-2.11723 0.61231,-2.37985 1.42793,-9.18949 4.77156,-5.13722 z m 1.2404,3.62803 c -2.17037,-0.22849 1.45161,0.82332 -1.14037,0.66964 1.7787,0.98437 -1.08839,0.40118 0.19006,1.32928 -1.24151,0.0928 0.37324,0.85857 -0.67928,1.1322 1.964,0.56387 -1.45237,0.0738 0.56753,1.0827 -2.05039,0.30126 1.31204,0.8326 -0.98861,1.02335 1.89055,0.71386 -1.44038,0.53099 1.07598,1.21373 -3.25597,-0.0234 2.04019,1.09152 -1.25869,0.89687 1.85267,0.84793 -0.13432,0.30042 -1.40421,0.63387 1.75115,-0.0714 3.6984,1.25303 0.6574,0.74584 -3.73688,-0.2789 4.36255,0.96335 -0.40027,0.64773 -2.71114,-0.22579 -1.74059,0.2568 0.17189,0.2518 1.79864,0.0724 3.6191,0.68781 5.38048,0.62259 -0.56444,-1.6315 -3.13905,-3.74491 0.36049,-3.94001 3.34259,-0.66333 -3.23332,-2.99433 0.27853,-3.74094 4.61231,-1.52777 -1.37609,-2.03707 -2.81093,-2.56865 z m -48.665932,-3.52808 c 2.0557,-0.79611 0.855398,-0.68242 0.170055,0.7296 1.004097,-0.70529 3.466007,-1.38046 0.90264,-0.19864 -2.593746,1.60144 3.3187,-1.19389 0.375376,0.57246 -3.246496,1.88421 3.376056,-1.1725 -0.05887,0.73559 -2.647923,1.70453 3.816832,-1.38662 0.09784,0.5372 -1.834711,1.55293 3.11216,-0.95024 -0.06408,0.95073 -1.376202,1.13897 3.278708,-1.17983 0.233201,0.50973 -1.033436,1.09914 3.030622,-0.96181 0.28447,0.451 -0.928744,0.8667 2.322167,-0.45717 0.0042,0.70275 -1.730906,1.44603 3.568129,-0.93211 0.519703,0.62653 -2.763438,1.42553 3.230034,-0.98848 0.40013,0.42852 -3.607732,1.80035 3.526604,-0.87638 -0.166461,0.79504 -2.833757,1.51164 4.03243,-1.1047 0.647927,0.41098 -4.081874,1.76641 3.972191,0.27476 1.435412,-2.12427 -0.626774,-2.37221 -1.444282,-9.18859 -4.781566,-5.12722 z M 106.63713,67.822273 c -2.74502,-2.072732 -9.701037,-1.094729 -10.145508,-0.148473 2.349058,-0.667265 5.694048,-1.455527 4.585548,1.924967 -0.14489,1.75557 0.50662,4.264964 -2.292611,3.61059 -2.195717,0.366445 -5.40551,3.070247 -4.680633,-1.011054 -0.756249,-2.422486 -0.04437,3.216819 -0.733385,-0.276159 -0.811776,-1.188208 -2.088967,3.160897 -0.979012,-0.534227 1.340421,-4.324843 6.196363,-6.068208 10.352861,-5.500947 3.47571,0.102973 6.75286,2.357213 7.53393,5.844433 0.78024,2.535674 -1.68505,-2.918717 -1.51424,0.978224 -0.15024,-0.446003 -0.0423,-2.80412 -0.52017,-0.441011 0.45199,4.256988 -3.72995,0.271068 -6.29332,0.828303 -0.78391,-0.919509 -0.26909,-2.711333 -0.50554,-3.992262 -1.09151,-3.74622 3.18087,-1.339979 5.19208,-1.282384 z m -13.064275,8.855204 c 2.871244,2.640763 6.820645,-2.682617 10.492835,-0.431953 1.32146,1.154137 5.47696,2.384717 4.91971,-0.251583 -3.96248,-2.671824 -9.193334,-3.218943 -13.501764,-1.044395 -0.319603,0.409195 -3.071871,0.901715 -1.910781,1.727931 z m 15.264995,15.811437 -0.06,0.08995 z m -0.06,0.08995 -0.09,0.139925 z m -0.3101,0.429768 c -2.71993,3.708904 -8.37355,4.914857 -12.075144,1.926457 -1.426851,-1.133014 -2.713789,-3.208355 -1.432403,-0.311394 1.823806,3.53212 6.486447,5.296851 9.996397,3.126119 1.73931,-0.991414 3.00875,-2.709787 3.51115,-4.741182 z M 94.303092,92.728785 94.173049,92.538886 Z m -3.581173,-12.96298 c 0.406367,2.053516 0.13305,-3.346623 1.322778,-0.246117 1.94115,2.436889 -0.394349,7.120627 -0.756811,2.226294 -0.07967,-0.637048 -0.817381,-1.358827 -0.565967,-1.980177 z m 2.81092,1.289301 c 0.307635,1.858337 5.840861,1.864474 2.473625,3.242463 -0.844634,1.547327 -0.408469,5.910341 0.207252,1.924739 1.200309,-2.242913 4.157044,-2.24461 3.037244,-3.689252 0.734147,0.626928 1.56028,0.504207 1.47422,0.06122 2.75371,1.1629 0.11811,-5.836664 1.68681,-1.491693 0.9892,1.494357 -1.60172,2.102931 0.63395,1.831509 1.66821,-1.15152 -1.47313,1.477733 1.32196,1.194079 2.26932,0.217486 2.94503,6.845671 2.70187,1.947969 0.30774,-2.033659 -3.39676,-2.597293 -0.19382,-3.456878 1.56901,-0.207559 2.80159,-2.233404 1.6918,-1.75405 -0.0796,-2.141112 -4.10783,-0.32197 -3.82249,-0.356057 -1.35556,-0.496143 2.27327,1.510512 -0.91687,0.402594 -1.5181,-1.340724 -2.97547,-2.559511 -4.49538,-0.240494 -2.43317,0.978476 -1.355709,0.05163 -0.568471,-0.410716 -2.301383,0.965353 0.976965,-0.554821 -1.820594,0.03499 -2.15684,-1.416966 -3.459456,1.066106 -3.111017,0.899513 0.135099,-0.08669 -0.634249,-0.944232 -0.300089,-0.13993 z m 5.141685,5.157206 c 2.315466,0.07508 2.228116,0.776045 3.869926,0.101883 3.07955,-1.767382 2.07578,5.964079 1.88993,1.874551 -1.43321,1.56876 -3.54547,-0.485399 -5.252033,0.848295 -1.374863,-2.110387 -0.765662,3.016387 -1.556409,-0.620425 -0.04005,-0.749424 0.155923,-2.027511 1.048586,-2.204304 z M 99.2147,85.662611 c -0.192299,0.225574 6.96997,0.434216 2.84671,-0.320925 -0.98486,0.618799 -1.93993,-0.711379 -2.84671,0.320925 z m -6.612165,-9.095074 c 1.744361,4.499701 5.8942,-0.87657 9.085665,-0.131278 2.89406,-0.349861 6.68061,4.528522 8.21,0.281197 -2.73875,4.156081 -6.92515,-2.742618 -10.797463,-0.226257 -2.312076,0.622697 -4.831865,3.446061 -6.498202,0.07634 z m -0.55018,2.008912 c 0.651101,3.544005 1.106526,0.158047 -0.195798,-1.167922 -1.93244,-0.254754 -1.100347,4.240433 -0.777071,0.725779 0.361219,-0.571871 0.906448,-0.0038 0.972869,0.442143 z m 17.975885,0.359805 c -0.55234,2.639842 -0.006,7.93514 1.29046,3.388165 1.19621,-1.354861 0.86433,-7.085973 -1.18399,-3.870404 l -0.10644,0.482239 z m 13.25434,45.725236 c 1.64457,1.952 5.46599,2.71084 6.81473,3.56432 -2.43968,0.79642 -7.04682,-1.64211 -6.81473,-3.56432 z m -6.05198,-7.87574 c 2.52933,-0.21441 -1.50366,3.52612 0,0 z m -0.67022,4.00784 c 0.49906,-3.4982 1.21433,2.08107 -6e-5,0 z m -0.64021,2.81847 c 1.12436,-3.8363 0.67862,2.95984 0,0 z m -29.219567,-1.03944 c 1.658541,1.13696 -0.903618,2.66833 -0.363089,0.2405 l 0.363086,-0.2405 z m -1.210396,-6.06671 c 1.314312,0.75138 -0.101643,3.40917 -0.527672,0.84454 l 0.170056,-0.55251 0.357619,-0.29203 z m 0.510167,3.04835 c 1.317412,0.7395 -0.105882,3.41371 -0.527672,0.84079 l 0.170056,-0.55298 0.357619,-0.28781 z m -13.144304,8.88518 c -1.947781,-1.0086 4.432389,-0.84281 5.315178,-2.23394 0.994626,-0.87422 3.096539,-2.08114 1.115795,0.008 -1.486653,1.39316 -3.609981,1.96775 -5.55967,2.27277 -0.290435,-0.0157 -0.580869,-0.0315 -0.871303,-0.0472 z m 19.08625,-15.89139 c -0.534598,1.82086 1.789936,2.11791 1.149123,0.43728 l -0.678971,-0.23737 -0.470154,-0.19989 z m 33.20087,-7.5659 c 0.97014,2.36206 -0.88734,6.94554 -2.98925,3.06149 -0.30003,-2.02449 -5.53739,-1.02769 -1.94484,-0.60403 1.63865,-0.74733 3.82033,5.26626 5.12418,1.18061 0.11831,-0.99685 0.44016,-3.18862 -0.19009,-3.63807 z m -11.96392,-0.68963 c 1.13387,1.64587 2.52766,7.98115 -0.53017,7.31602 -0.0624,-2.5261 1.78319,-4.52004 0.21007,-6.85627 -0.16447,0.07 0.11923,-0.8529 0.3201,-0.45975 z M 93.632873,92.348989 c -0.392071,1.092433 1.445624,2.367292 0,0 z m 15.164967,1.749055 c 1.76111,-1.590056 0.0872,-2.893706 0,0 z M 72.986113,112.74794 c 2.24454,0.97841 1.892722,0.71887 0.450147,-0.76958 0.774596,-1.53848 2.848677,-6.48804 2.620116,-1.90487 0.351986,-2.78286 0.537577,-6.83745 2.34104,-8.58445 -0.43725,2.35013 -2.460994,9.17474 1.559788,8.35501 1.303144,-1.75964 2.193311,-2.72032 4.209132,-2.63264 1.107373,-0.21413 0.08703,6.01449 -0.585035,2.07512 0.258837,1.97791 -0.415225,3.22427 -0.962034,0.59296 -0.939732,-4.42484 -0.118719,1.67307 -0.578941,3.21826 -0.20926,3.13636 -4.980708,0.41452 -4.757806,1.06567 1.486808,0.19211 4.482625,1.46976 1.331803,1.93017 -1.176145,-0.66683 -7.049047,-1.69655 -5.62821,-3.34565 z m 23.197595,4.60751 c -0.39775,-2.07264 1.856939,0.44991 0.994237,-0.10323 0.04571,-0.85031 -1.279827,-0.69631 -0.994237,0.10323 z m 10.583462,0 c 0.4233,-2.07824 -1.8744,0.45135 -0.98578,-0.10323 -0.0415,-0.84857 1.27325,-0.69744 0.98578,0.10323 z m -6.20203,1.05942 c -2.69785,0.69937 -7.495728,-1.20018 -5.253123,-4.24519 4.175036,0.59823 8.410763,0.39297 12.594433,0.0284 1.31492,2.05667 -1.00701,4.63416 -2.68978,4.20677 1.94113,0.0434 3.43874,-1.93378 2.80126,1.00894 -0.0203,1.45036 -0.12273,2.91042 -0.0943,4.35503 0.50337,-3.26068 0.59218,-6.77205 0.46397,-10.01516 -4.48966,0.25713 -9.03336,0.44058 -13.526836,-0.0708 -0.792023,2.98755 -0.09896,6.76824 -0.05752,10.04911 -0.219585,1.46746 1.07959,4.02663 0.456086,1.05818 -0.265591,-2.45423 -0.342775,-4.94092 -0.399059,-7.40343 1.256611,1.47205 4.68671,1.23039 5.704859,1.02815 z m 8.09265,-11.04402 c 0.80445,-2.60941 6.18635,1.65942 3.00161,-0.15819 -1.00118,-0.0845 -2.58636,-0.49171 -3.00161,0.15819 z m 0.20007,1.24933 c 0.65014,-0.15588 -0.0629,0.5678 0,0 z m 3.03099,0.29983 c 1.12618,-0.10889 -0.17113,0.70699 0,0 z m -0.77025,-0.04 c 0.97371,-0.14239 0.002,0.55611 0,0 z m -0.85028,-0.0999 c 1.20306,-0.19171 -0.002,0.6507 0,0 z m -0.81027,-0.0999 c 1.16803,-0.1655 -0.11784,0.69528 0,0 z m -15.515075,-0.05 c 0.865201,-0.13033 -0.06867,0.59319 0,0 z m -3.030992,0.32982 c 1.039161,-0.15607 -0.01409,0.61445 0,0 z m 0.580189,-0.14991 c 1.74086,-0.16963 -0.12788,0.81811 0,0 z m 0.910299,-0.07 c 1.172584,-0.11072 -0.118173,0.64994 0,0 z m 0.740243,-0.04 c 1.216458,-0.16307 -0.09057,0.71579 0,0 z"
       id="path2103" /></g></svg>
