<?xml version="1.0" encoding="UTF-8"?>
<!-- Created with Inkscape (http://www.inkscape.org/) -->
<svg width="69.872mm" height="108.19mm" version="1.1" viewBox="0 0 69.872 108.19" xml:space="preserve" xmlns="http://www.w3.org/2000/svg"><g transform="translate(-70.609 -75.996)"><path d="m70.609 179.22v-98.261c0-2.732 2.239-4.9639 4.9596-4.9639h59.953c2.7296 0 4.9596 2.232 4.9596 4.9639v98.261c0 2.732-2.23 4.964-4.9596 4.964h-59.953c-2.7207 0-4.9596-2.232-4.9596-4.964zm50.479-90.476h-1.9357v0.30356h1.9357zm-11.48 0h-2.0873v0.30356h2.0873zm-28.571 91.19v-2.348h-0.30328v2.348zm0-16.856v-2.3391h-0.30328v2.3391zm-5.6376-75.682v-0.33927h-0.30328v0.33927zm0-3.7408v-0.33927h-0.30328v0.33927zm0.46385 11.472v-1.0267h-0.30328v1.0267zm0-5.33v-1.0267h-0.30328v1.0267zm0.47277 13.651v-1.3035h-0.29437v1.3035zm0-6.562v-1.2946h-0.29437v1.2946zm0.59766 15.588v-1.857h-0.30328v1.857zm0-8.2673v-1.857h-0.30328v1.857zm0.34789 17.552v-1.5088h-0.30328v1.5088zm0-8.6155v-1.5178h-0.30328v1.5178zm0.93662 21.275v-2.0981h-0.30328v2.0981zm0-11.053v-2.0981h-0.30328v2.0981zm0.94555 23.266v-1.1696h-0.30329v1.1696zm0-11.981v-1.1696h-0.30329v1.1696zm0.93662 27.195v-1.3838h-0.30329v1.3838zm0-14.044v-1.3749h-0.30329v1.3749zm9.8479 22.382h-1.6948v0.30356h1.6948zm-16.422 0h-1.6948v0.30356h1.6948zm3.7643-84.976h-0.31221v0.29462h0.31221zm-3.7643 0h-0.31221v0.29462h0.31221zm4.9775 6.5888h-0.60657v0.30356h0.60657zm-4.9775 0h-0.6155v0.30356h0.6155zm5.8338 7.5709h-0.50845v0.30355h0.50845zm-5.8338 0h-0.50845v0.30355h0.50845zm8.2869 17.177h-1.0793v0.30355h1.0793zm-8.2869 0h-1.0794v0.30355h1.0794zm9.9817 11.151h-0.89202v0.30355h0.89202zm-9.9817 0h-0.89202v0.30355h0.89202zm11.302 12.213h-0.33005v0.30355h0.33005zm-11.302 0h-0.33005v0.30355h0.33005zm14.344 14.07h-1.4986v0.30356h1.4986zm-14.344 0h-1.4986v0.30356h1.4986zm23.995-73.745v3.2587h0.30329v-3.2587zm0 13.535v2.4552h0.30329v-2.4552zm0 11.597v2.0891h0.30329v-2.0891zm0 10.419v1.741h0.30329v-1.741zm0 9.3297v2.107h0.30329v-2.107zm0 7.6334v3.0534h0.30329v-3.0534zm0 7.687v2.3123h0.30329v-2.3123zm0 6.3656v2.8212h0.30329v-2.8212zm2.4887-2.1784h-0.66901v0.30354h0.66901zm-4.2639 0h-1.5164v0.30354h1.5164zm-5.2718 0h-0.7493v0.30354h0.7493zm5.0221-6.6514h-1.3916v0.29462h1.3916zm-6.2798 0h-0.99906v0.29462h0.99906zm5.8963-8.1423h-1.6235v0.30356h1.6235zm6.6188-8.6601h-0.85635v0.30356h0.85635zm-7.5108 0h-1.1864v0.30356h1.1864zm7.9122-9.6958h-0.93663v0.29462h0.93663zm-8.2334 0h-1.4094v0.29462h1.4094zm-8.6615 0h-1.0704v0.29462h1.0704zm16.841-10.83h-0.65117v0.30356h0.65117zm-8.8667 0h-1.2399v0.30356h1.2399zm-9.4822 0h-0.82958v0.30356h0.82958zm20.16-12.16h-1.8911v0.29462h1.8911zm-10.927 0h-1.6235v0.29462h1.6235zm-10.811 0h-1.2221v0.29462h1.2221zm3.3183-6.2228 0.22301 1.8838 0.30328-0.0357-0.23192-1.8838zm1.3024 10.981 0.41033 3.473 0.30329-0.0357-0.41033-3.473zm1.3916 11.669 0.36573 3.098 0.30328-0.0357-0.37465-3.098zm1.2221 10.294 0.33896 2.8659 0.29436-0.0357-0.33896-2.8659zm1.0972 9.2851 0.33897 2.8123 0.29437-0.0357-0.33005-2.8123zm0.96338 8.0887 0.37466 3.1248 0.29436-0.0357-0.36573-3.1248zm0.93663 7.8477 0.29437 2.5356 0.30328-0.0357-0.30328-2.5356zm0.71362 6.0353 0.19624 1.6428 0.30328-0.0357-0.19624-1.6428zm21.435-51.746v-1.0446h-0.30329v1.0446zm0-10.597v-1.0446h-0.30329v1.0446zm-0.68687 26.445v-2.107h-0.30328v2.107zm0-13.312v-2.107h-0.30328v2.107zm-0.74929 28.275v-1.6338h-0.30329v1.6338zm0-13.776v-1.6428h-0.30329v1.6428zm-0.80282 30.025v-1.1696h-0.30329v1.1696zm0-14.258v-1.1606h-0.30329v1.1606zm-0.86526 33.73v-2.5177h-0.30329v2.5177zm0-16.677v-2.5177h-0.30329v2.5177zm-0.89202 35.364v-2.1695h-0.30328v2.1695zm0-17.026v-2.1695h-0.30328v2.1695zm15.762 18.276v-2.2945h-0.30328v2.2945zm0-19.4v-2.1159h-0.30328v2.1159zm0-18.151v-2.0981h-0.30328v2.0981zm0-17.044v-1.9463h-0.30328v1.9463zm0-15.597v-1.7588h-0.30328v1.7588zm0-14.517v-1.7142h-0.30328v1.7142zm0-13.446v-3.4819h-0.30328v3.4819zm10.624 87.155h-3.3986v0.30356h3.3986zm-18.162 0h-0.94555v0.30356h0.94555zm-15.798 0h-3.3986v0.30356h3.3986zm32.425-18.686h-2.3282v0.30355h2.3282zm-16.163 0h-0.87417v0.30355h0.87417zm-15.013 0h-3.1131v0.30355h3.1131zm29.285-17.588h-0.90986v0.30354h0.90986zm-13.8 0h-1.0169v0.30354h1.0169zm-14.094 0h-2.6136v0.30354h2.6136zm26.894-16.24h-0.47276v0.30355h0.47276zm-12.239 0h-1.2488v0.30355h1.2488zm-13.38 0h-1.115v0.30355h1.115zm13.764-14.972h-1.3559v0.30355h1.3559zm-12.542 0h-1.338v0.30355h1.338zm22.871-11.008v-5.5889l-2.4174-1.3928-2.4085-1.3928-4.8348 2.7855v5.5889l4.8348 2.7855 2.4085-1.3928zm-36.974 53.104v0.0446c0 0.0357 0 0.0803-0.0089 0.12499 0 0.0268 0 0.0536-0.0089 0.0804-0.0089 0.0357-0.01786 0.0803-0.02677 0.11606l-0.0089 0.0357c0 0.0268-0.0089 0.0536-0.01785 0.0803l-0.01785 0.0357c-0.0089 0.0268-0.01785 0.0536-0.02677 0.0803-0.0089 0.0179-0.01785 0.0446-0.02677 0.0714l-0.01785 0.0357c-0.0089 0.0268-0.02677 0.0446-0.0357 0.0714l-0.01785 0.0357c-0.01784 0.0179-0.02677 0.0446-0.04462 0.0625-0.01785 0.0268-0.02677 0.0446-0.04462 0.0714l-0.02677 0.0268c-0.01786 0.0268-0.02677 0.0446-0.05355 0.0714-0.0089 0.0179-0.02677 0.0357-0.04462 0.0536s-0.0357 0.0357-0.05355 0.0536-0.0357 0.0446-0.06248 0.0625c-0.02677 0.0179-0.05355 0.0446-0.08916 0.0714-0.02677 0.0268-0.06248 0.0536-0.09812 0.0714-0.0089 9e-3 -0.02677 0.0179-0.04463 0.0268-0.02677 0.0179-0.04463 0.0357-0.0714 0.0446-0.02677 0.0179-0.05355 0.0268-0.07131 0.0357l-0.0357 0.0178c-0.05355 0.0268-0.10705 0.0446-0.16057 0.0625-0.0357 0.0179-0.0714 0.0268-0.10704 0.0357-0.01785 9e-3 -0.0357 9e-3 -0.05355 0.0179-0.04462 9e-3 -0.08916 0.0179-0.14272 0.0268-0.06248 9e-3 -0.13381 9e-3 -0.20517 9e-3h-0.04463-0.08024c-0.05355 0-0.10705-9e-3 -0.16056-0.0179-0.04462-9e-3 -0.08024-0.0179-0.12489-0.0268l-0.0357-9e-3c-0.02677 0-0.05355-9e-3 -0.08024-0.0179l-0.0357-0.0179c-0.02677-9e-3 -0.05355-0.0178-0.0714-0.0268-0.02677-9e-3 -0.05355-0.0178-0.0714-0.0268l-0.04462-0.0179c-0.01785-9e-3 -0.04462-0.0268-0.06248-0.0357l-0.0357-0.0179c-0.02677-0.0179-0.04462-0.0268-0.0714-0.0446l-0.0357-0.0179-0.02677-0.0268c-0.02677-0.0179-0.04462-0.0268-0.06248-0.0446l-0.0357-0.0268c-0.02677-0.0268-0.06248-0.0536-0.08916-0.0803l-0.05354-0.0536c-0.02677-0.0268-0.05355-0.0625-0.08024-0.0893-0.02677-0.0357-0.05355-0.0625-0.0714-0.0982l-0.02677-0.0357c-0.01785-0.0268-0.04463-0.0625-0.06248-0.0982l-0.0357-0.0714c-0.0089-0.0268-0.02677-0.0536-0.0357-0.0714l-0.01785-0.0446-0.01785-0.0357c-0.0089-0.0268-0.01785-0.0536-0.02677-0.0714l-0.0089-0.0446-0.0089-0.0357-0.01785-0.0446-0.0089-0.0357-0.0089-0.0446v-0.0446l-0.0089-0.0446c-0.1338-0.90174 0.49953-1.741 1.4005-1.866l0.04463-9e-3h0.0357l0.04463-9e-3h0.04462 0.08024 0.08033c0.02677 0 0.05355 9e-3 0.08925 9e-3 0.0089 0 0.02677 0 0.04462 9e-3 0.02677 0 0.04462 9e-3 0.07131 9e-3 0.06248 9e-3 0.13381 0.0268 0.19626 0.0536l0.0357 9e-3c0.02677 9e-3 0.05355 0.0179 0.08024 0.0268 0.01785 9e-3 0.04463 0.0179 0.0714 0.0357 0.02677 9e-3 0.04462 0.0179 0.0714 0.0268 0.0357 0.0268 0.0714 0.0446 0.09811 0.0625l0.0357 0.0179c0.02677 0.0178 0.04463 0.0357 0.0714 0.0446l0.02677 0.0268 0.0357 0.0268 0.02677 0.0179 0.0357 0.0268c0.0089 0.0179 0.02677 0.0268 0.0357 0.0446 0.01785 9e-3 0.0357 0.0268 0.04462 0.0357 0.01785 0.0268 0.0357 0.0446 0.05355 0.0625l0.02677 0.0268c0.01786 0.0179 0.0357 0.0446 0.05355 0.0625l0.02677 0.0357c0.01785 0.0178 0.02677 0.0446 0.04462 0.0625s0.02677 0.0446 0.04463 0.0714l0.01785 0.0268c0.01785 0.0357 0.0357 0.0714 0.05355 0.11608 0.0357 0.0536 0.06248 0.12498 0.08032 0.18748l0.0089 0.0357c0.02677 0.0803 0.04462 0.1607 0.05355 0.24998 0.0089 0.0536 0.01785 0.11606 0.01785 0.16964v0.0803zm-2.9348-56.782c0.0089 0.0357 0.0089 0.0714 0.01785 0.10714 0 0.04462 0.0089 0.08032 0.0089 0.11607 0.0089 0.0357 0.0089 0.0714 0.0089 0.10714 0 0.04463 0.0089 0.08032 0.0089 0.11606v0.10714 0.11606c0 0.0714 0 0.14284-0.0089 0.21427v0.10714c-0.0089 0.0357-0.0089 0.0714-0.01785 0.10714-0.0089 0.0714-0.01785 0.14284-0.02677 0.21427-0.0089 0.0357-0.0089 0.0714-0.01785 0.10714-0.0089 0.0357-0.0089 0.0714-0.01785 0.10714-0.0089 0.0357-0.01785 0.0714-0.02677 0.0982-0.01784 0.0714-0.0357 0.14285-0.05355 0.20535-0.02677 0.10714-0.06248 0.20534-0.09812 0.30355-0.0089 0.0357-0.02677 0.0714-0.0357 0.0982-0.01785 0.0357-0.02677 0.0714-0.04463 0.09821-0.02677 0.06248-0.05355 0.13392-0.08916 0.19641-0.06248 0.125-0.12489 0.24998-0.19624 0.36605-0.0357 0.06248-0.08024 0.11606-0.11596 0.17856-0.05355 0.08032-0.11596 0.16963-0.18733 0.24998-0.01785 0.02677-0.04462 0.05355-0.06248 0.08032-0.02677 0.02677-0.04463 0.05355-0.0714 0.08032-0.06248 0.08032-0.1338 0.1607-0.21409 0.23213-0.01785 0.02677-0.04463 0.05355-0.0714 0.0714-0.02677 0.02677-0.05355 0.05355-0.08024 0.0714-0.02677 0.02677-0.05355 0.05355-0.08024 0.0714-0.02677 0.02677-0.05355 0.04463-0.08032 0.0714-0.02677 0.01785-0.05355 0.04462-0.08024 0.06248-0.02677 0.02677-0.05355 0.04463-0.08032 0.06248-0.02677 0.02677-0.06248 0.04462-0.08925 0.06248-0.11596 0.08032-0.23192 0.1607-0.35681 0.23213-0.02677 0.01785-0.06248 0.0357-0.08925 0.05355-0.0357 0.0089-0.06247 0.02677-0.09813 0.04462-0.09812 0.05355-0.19624 0.09821-0.29436 0.13392-0.33005 0.14285-0.68685 0.24106-1.0615 0.29462-0.223 0.02677-0.446 0.04462-0.6601 0.04462-1.3559-0.0089-2.5958-0.65174-3.3986-1.6785-0.08916-0.11606-0.16949-0.2232-0.24085-0.34819-0.04463-0.06248-0.08024-0.11606-0.11596-0.17855-0.0357-0.06248-0.06248-0.125-0.09812-0.18749-0.0357-0.06248-0.06248-0.13392-0.08925-0.19641-0.0357-0.06248-0.06248-0.13392-0.08925-0.19642-0.04462-0.14284-0.09812-0.27676-0.1338-0.41961-0.01785-0.0714-0.0357-0.14284-0.05355-0.21427-0.0089-0.0357-0.01786-0.0714-0.01786-0.10714-0.0089-0.0357-0.01785-0.0714-0.02677-0.11606 0-0.0357-0.0089-0.0714-0.01785-0.10714 0-0.0357-0.0089-0.0714-0.0089-0.11606-0.0089-0.0357-0.0089-0.0714-0.01785-0.10714 0-0.0357 0-0.0714-0.0089-0.11607v-0.10713c0-0.0357-0.0089-0.0714-0.0089-0.10714v-0.11607c0-0.0357 0-0.0714 0.0089-0.10713v-0.10714c0.0089-0.0714 0.0089-0.14286 0.01785-0.21427 0.0089-0.0357 0.0089-0.0714 0.01785-0.10714 0-0.0357 0.0089-0.0714 0.0089-0.10714 0.0089-0.0357 0.01785-0.0714 0.01785-0.10714 0.0089-0.0357 0.01785-0.0714 0.02677-0.10714 0.0089-0.0357 0.01786-0.0714 0.01786-0.10714 0.0089-0.02677 0.01785-0.06248 0.02677-0.09821 0.0089-0.0357 0.01785-0.0714 0.0357-0.10713 0.01785-0.06248 0.0357-0.13392 0.06248-0.19642 0.0089-0.0357 0.01785-0.0714 0.0357-0.0982 0.0089-0.0357 0.01785-0.0714 0.0357-0.09821 0.0089-0.0357 0.02677-0.0714 0.0357-0.0982 0.01785-0.0357 0.0357-0.0714 0.04462-0.09821 0.02677-0.06248 0.06248-0.125 0.08917-0.18749 0.0357-0.06248 0.0714-0.125 0.10705-0.18749 0.01785-0.02677 0.0357-0.06248 0.05355-0.08928 0.01785-0.02677 0.0357-0.06248 0.05355-0.08928 0.01785-0.02677 0.0357-0.06248 0.05355-0.08928 0.04463-0.05355 0.08024-0.11606 0.12488-0.16963 0.01786-0.02677 0.04463-0.05355 0.06248-0.08032 0.02677-0.02677 0.04462-0.05355 0.0714-0.08032 0.04463-0.05355 0.08925-0.10714 0.1338-0.1607 0.0714-0.08032 0.14273-0.15177 0.22301-0.2232 0.04463-0.05355 0.09812-0.09821 0.15164-0.14285 0.05355-0.04462 0.10705-0.08927 0.16057-0.13392 0.02677-0.02677 0.06248-0.04463 0.08925-0.06248 0.02677-0.02677 0.05355-0.04463 0.08024-0.06248 0.06248-0.04462 0.11596-0.08032 0.1784-0.12499 0.06248-0.0357 0.12489-0.0714 0.1784-0.10714 0.06248-0.0357 0.12489-0.0714 0.19624-0.09821 0.02677-0.01785 0.06248-0.0357 0.08925-0.05355 0.0357-0.0089 0.0714-0.02677 0.09812-0.04463 0.0714-0.02677 0.1338-0.05355 0.20517-0.08032 0.09812-0.0357 0.20516-0.0714 0.30329-0.10714 0.0357-0.0089 0.07131-0.01785 0.10704-0.02677 0.0714-0.01785 0.14272-0.0357 0.21408-0.05355 0.0357-0.0089 0.0714-0.01785 0.10705-0.02677 0.04462-0.0089 0.08024-0.0089 0.11596-0.01785 0.0357-0.0089 0.0714-0.0089 0.10704-0.01785 0.0357-0.0089 0.08032-0.0089 0.11596-0.01785 0.0357 0 0.0714-0.0089 0.10705-0.0089 0.0357 0 0.08024-0.0089 0.11596-0.0089 0.0357 0 0.0714 0 0.10705-0.0089h0.11596 0.10704 0.10705c0.0357 0 0.0714 0.0089 0.10704 0.0089 0.0714 0 0.15164 0.0089 0.22301 0.01785 0.0357 0 0.07131 0.0089 0.10704 0.0089 0.0357 0.0089 0.0714 0.0089 0.09813 0.01785 0.0357 0.0089 0.07131 0.0089 0.10704 0.01785 0.10704 0.01785 0.21408 0.04463 0.31221 0.0714 0.0357 0.0089 0.0714 0.01785 0.10705 0.02677 0.0357 0.0089 0.06248 0.01785 0.09811 0.0357 0.0357 0.0089 0.0714 0.01785 0.09813 0.02677 0.1338 0.04463 0.2676 0.09821 0.39249 0.1607 0.0357 0.0089 0.06248 0.02677 0.09812 0.04462 0.06248 0.02677 0.12488 0.06248 0.18732 0.0982 0.15164 0.08032 0.30329 0.16964 0.44601 0.27677 0.33897 0.24106 0.64225 0.53567 0.90095 0.866 0.08916 0.10715 0.16948 0.22321 0.24977 0.34819 0.0357 0.05355 0.07131 0.11606 0.10704 0.17856 0.0714 0.12499 0.1338 0.24998 0.19624 0.3839 0.08925 0.19641 0.16057 0.40176 0.21408 0.61602 0.02677 0.0714 0.04463 0.14285 0.05355 0.21427 0.01785 0.0714 0.0357 0.14286 0.04462 0.21427 0.0089 0.04463 0.01785 0.08032 0.01785 0.11606zm0.64226 12.231c0.0089 0.0357 0.0089 0.0625 0.01785 0.0982 0 0.0357 0.0089 0.0714 0.0089 0.0982 0 0.0357 0.0089 0.0714 0.0089 0.0982v0.10713c0.0089 0.0268 0.0089 0.0625 0.0089 0.0982v0.0982 0.0982c-0.0089 0.0625-0.0089 0.12498-0.01785 0.18747 0 0.0357 0 0.0625-0.0089 0.0982-0.0089 0.0625-0.01785 0.12499-0.02677 0.18748 0 0.0357-0.0089 0.0625-0.0089 0.0982-0.01785 0.0625-0.02677 0.12499-0.04463 0.18748-0.0089 0.0268-0.01785 0.0625-0.02677 0.0893 0 0.0357-0.0089 0.0625-0.01785 0.0893-0.01785 0.0625-0.0357 0.12499-0.06248 0.18748-0.0089 0.0268-0.01785 0.0536-0.02677 0.0893-0.01785 0.0268-0.02677 0.0536-0.0357 0.0893-0.0089 0.0268-0.02677 0.0536-0.0357 0.0803-0.0089 0.0268-0.02677 0.0625-0.0357 0.0893-0.01785 0.0268-0.02677 0.0536-0.04463 0.0803-0.0089 0.0357-0.02677 0.0625-0.04462 0.0893-0.0357 0.0803-0.08925 0.16071-0.1338 0.24105-0.01785 0.0268-0.0357 0.0536-0.05355 0.0803-0.0089 0.0268-0.02677 0.0536-0.04463 0.0803-0.0357 0.0536-0.0714 0.0982-0.10705 0.15178-0.02677 0.0268-0.04463 0.0536-0.06248 0.0714-0.0357 0.0536-0.08032 0.0982-0.11596 0.14283-0.0357 0.0357-0.06247 0.0714-0.09812 0.10713-0.02677 0.0357-0.06247 0.0714-0.09812 0.0982-0.04463 0.0446-0.08916 0.0893-0.1338 0.13393-0.02677 0.0179-0.04463 0.0446-0.0714 0.0625-0.01785 0.0178-0.04463 0.0446-0.0714 0.0625-0.04463 0.0357-0.09812 0.0803-0.14272 0.11605-0.10705 0.0714-0.20517 0.14285-0.32113 0.20535-0.06248 0.0446-0.12488 0.0803-0.18732 0.11606-0.1338 0.0625-0.26761 0.12499-0.41033 0.17856-0.1784 0.0714-0.36573 0.13392-0.56197 0.16964-0.0357 9e-3 -0.06248 0.0179-0.09812 0.0268-0.06248 9e-3 -0.1338 0.0178-0.19624 0.0357-0.16949 0.0179-0.33005 0.0357-0.49954 0.0357h-0.19624c-0.02677 0-0.06248-9e-3 -0.09812-9e-3 -0.06248 0-0.12489-9e-3 -0.18733-0.0178-0.0357 0-0.06248 0-0.09812-9e-3 -0.02677 0-0.06248-9e-3 -0.08925-9e-3 -0.0714-0.0179-0.1338-0.0268-0.19624-0.0357-0.02677-9e-3 -0.06248-0.0179-0.08917-0.0268-0.02677-9e-3 -0.06248-9e-3 -0.08925-0.0179-0.06248-0.0178-0.12489-0.0357-0.18733-0.0536-0.02677-9e-3 -0.05355-0.0179-0.08925-0.0357-0.02677-9e-3 -0.05355-0.0178-0.08916-0.0268-0.02677-9e-3 -0.05355-0.0268-0.08925-0.0357-0.02677-9e-3 -0.05355-0.0268-0.08032-0.0357-0.0357-9e-3 -0.06248-0.0268-0.08916-0.0357-0.02677-0.0178-0.05355-0.0268-0.08032-0.0446-0.04463-0.0179-0.08024-0.0357-0.11596-0.0536-0.07131-0.0357-0.14272-0.0803-0.21408-0.12499-0.02677-0.0178-0.05355-0.0268-0.08024-0.0446-0.02677-0.0179-0.05355-0.0357-0.08032-0.0536-0.02677-0.0178-0.05355-0.0357-0.08024-0.0536-0.01785-0.0179-0.04463-0.0357-0.0714-0.0536s-0.05355-0.0357-0.0714-0.0625c-0.02677-0.0178-0.05355-0.0357-0.08032-0.0536-0.0714-0.0625-0.1338-0.12499-0.20516-0.18749-0.02677-0.0268-0.04463-0.0446-0.0714-0.0625-0.01785-0.0268-0.0357-0.0446-0.06247-0.0714-0.04463-0.0446-0.08032-0.0893-0.12489-0.14285-0.01785-0.0178-0.04462-0.0446-0.06248-0.0714-0.01785-0.0179-0.0357-0.0446-0.05355-0.0714-0.02677-0.0268-0.04463-0.0446-0.06248-0.0714s-0.0357-0.0536-0.05355-0.0803c-0.0357-0.0536-0.0714-0.0982-0.10704-0.15178-0.01785-0.0268-0.0357-0.0536-0.04462-0.0803-0.01785-0.0268-0.0357-0.0625-0.05355-0.0893s-0.02677-0.0536-0.04462-0.0803c-0.01785-0.0268-0.02677-0.0536-0.04463-0.0803-0.01785-0.0357-0.02677-0.0625-0.04462-0.0893-0.0089-0.0268-0.02677-0.0625-0.0357-0.0893-0.01785-0.0268-0.02677-0.0536-0.0357-0.0893-0.02677-0.0536-0.05355-0.11608-0.0714-0.17857-0.01785-0.0268-0.02677-0.0625-0.0357-0.0893-0.0089-0.0357-0.01785-0.0625-0.02677-0.0982-0.01785-0.0625-0.0357-0.12498-0.05355-0.18747-0.0089-0.0357-0.01785-0.0625-0.02677-0.0982 0-0.0268-0.0089-0.0625-0.01784-0.0982-0.0089-0.0268-0.0089-0.0625-0.01785-0.0982 0-0.0268-0.0089-0.0625-0.01786-0.0982 0-0.0357-0.0089-0.0625-0.0089-0.0982s-0.0089-0.0714-0.0089-0.0982c-0.0089-0.0357-0.0089-0.0714-0.0089-0.0982 0-0.0357-0.0089-0.0714-0.0089-0.0982v-0.0982-0.19641c0-0.0357 0-0.0714 0.0089-0.0982v-0.0982c0.0089-0.0357 0.0089-0.0625 0.01785-0.0982 0-0.0357 0-0.0625 0.0089-0.0982 0-0.0268 0.0089-0.0625 0.0089-0.0893 0.01785-0.0625 0.02677-0.12499 0.0357-0.18749 0.02677-0.0982 0.04462-0.18748 0.0714-0.27676 0.02677-0.0982 0.05355-0.18748 0.08916-0.27676 0.0089-0.02678 0.02677-0.05356 0.0357-0.08034 0.01785-0.06249 0.04463-0.11606 0.0714-0.17857 0.01785-0.02678 0.02677-0.05356 0.04463-0.08034 0.0089-0.02678 0.02677-0.06249 0.0357-0.08927 0.01785-0.02678 0.0357-0.05356 0.04462-0.08034 0.01785-0.02678 0.0357-0.05356 0.04463-0.08034 0.0357-0.05356 0.06248-0.10713 0.09812-0.1607 0.01785-0.02678 0.0357-0.05356 0.05355-0.08034s0.0357-0.05356 0.05355-0.07142c0.01785-0.02678 0.0357-0.05356 0.05355-0.08034 0.05355-0.07142 0.11596-0.14285 0.1784-0.21427 0.01785-0.02678 0.04462-0.05356 0.06248-0.07142 0.01785-0.02678 0.04463-0.04464 0.06248-0.07142 0.08925-0.08927 0.1784-0.17856 0.27652-0.25891 0.01785-0.01785 0.04462-0.03571 0.0714-0.06249 0.04463-0.03571 0.09812-0.0714 0.14272-0.11606 0.08024-0.05355 0.15164-0.10715 0.23192-0.1607 0.05355-0.02677 0.10705-0.06248 0.16949-0.09821 0.16056-0.08928 0.33897-0.16963 0.51738-0.24106 0.1784-0.0714 0.36572-0.13392 0.56197-0.16963 0.02677-0.0089 0.06247-0.01785 0.09813-0.02677 0.06248-0.0089 0.12488-0.01785 0.19624-0.02677 0.16949-0.02677 0.33006-0.04462 0.49062-0.04462h0.19624c0.0357 0.0089 0.0714 0.0089 0.09812 0.0089 0.0714 0 0.1338 0.0089 0.19624 0.01785 0.06248 0.0089 0.12488 0.0089 0.18733 0.02677 0.0357 0 0.06248 0.0089 0.09812 0.0089 0.02677 0.0089 0.06248 0.01785 0.08916 0.02677 0.06248 0.0089 0.12488 0.02677 0.18732 0.0357 0.06248 0.01785 0.12489 0.0357 0.1784 0.05355 0.09813 0.0357 0.18733 0.06248 0.26761 0.09821 0.0357 0.0089 0.06248 0.02677 0.08917 0.0357 0.06248 0.02677 0.11596 0.05355 0.16948 0.08032 0.02677 0.0089 0.06248 0.02677 0.08925 0.0357 0.08032 0.04462 0.16056 0.08927 0.24084 0.14284 0.02677 0.01785 0.05355 0.0357 0.08024 0.04462 0.02677 0.01786 0.05355 0.0357 0.08024 0.05355 0.02677 0.01785 0.04463 0.0357 0.0714 0.05355 0.05355 0.0357 0.10705 0.0714 0.15164 0.11606 0.02677 0.01785 0.05355 0.03571 0.0714 0.05356 0.02677 0.02678 0.05355 0.04464 0.0714 0.06249 0.0714 0.06249 0.14272 0.125 0.20517 0.19642 0.04463 0.04464 0.08916 0.08927 0.1338 0.13392 0.01785 0.01785 0.0357 0.04464 0.06248 0.07142 0.01785 0.01785 0.0357 0.04464 0.06248 0.07142 0.01785 0.01785 0.0357 0.04464 0.05355 0.07142s0.0357 0.05356 0.06248 0.07142c0.01785 0.02678 0.0357 0.05356 0.05355 0.08034s0.0357 0.05356 0.05355 0.08035c0.01785 0.02678 0.0357 0.05356 0.05355 0.08034s0.02677 0.05356 0.04462 0.08034c0.0357 0.05356 0.06248 0.10713 0.09813 0.16071 0.0089 0.02678 0.02677 0.05356 0.04463 0.08927 0.0089 0.02678 0.02677 0.05356 0.0357 0.08035 0.01785 0.02678 0.02677 0.06249 0.04463 0.08927 0.0089 0.02678 0.02677 0.06249 0.0357 0.08927 0.01785 0.02678 0.02677 0.06249 0.0357 0.08927 0.01785 0.02678 0.02677 0.06249 0.0357 0.08927 0.0089 0.03571 0.01785 0.06249 0.0357 0.08927 0.0089 0.03571 0.01785 0.06249 0.02677 0.0982 0.0089 0.02678 0.01785 0.06249 0.02677 0.08927 0.0089 0.03571 0.01785 0.07142 0.02677 0.0982 0.0089 0.03571 0.0089 0.06249 0.01785 0.0982 0.0089 0.03571 0.01785 0.06249 0.02677 0.0982 0 0.0357 0.0089 0.0625 0.01785 0.0982 0 0.0357 0.0089 0.0625 0.0089 0.0982zm0.52629 10.892c0 0.0357 0.0089 0.0625 0.0089 0.0893 0.01785 0.11606 0.02677 0.23212 0.02677 0.34818v0.16964c-0.0089 0.0803-0.0089 0.16963-0.01785 0.24998-0.01785 0.11606-0.0357 0.2232-0.05355 0.33033-0.0089 0.0357-0.01785 0.0714-0.02677 0.0982-0.15164 0.64282-0.49061 1.2142-0.96338 1.6695-0.16057 0.15177-0.34789 0.29463-0.54413 0.41961-0.0357 0.0268-0.0714 0.0446-0.11596 0.0714-0.30329 0.16963-0.64226 0.30355-1.008 0.37497l-0.0357 9e-3c-0.04463 9e-3 -0.09812 0.0178-0.15164 0.0268-0.11596 0.0179-0.23193 0.0268-0.33896 0.0268h-0.0089c-0.06248 9e-3 -0.11596 9e-3 -0.16949 9e-3 -0.08925-9e-3 -0.16949-9e-3 -0.25868-0.0179-0.02677 0-0.05355 0-0.08024-9e-3 -0.05355 0-0.11596-9e-3 -0.16949-0.0179-0.21408-0.0357-0.42817-0.0982-0.63334-0.16962-0.25868-0.0982-0.50845-0.22321-0.73145-0.37498-0.06248-0.0446-0.1338-0.0893-0.19624-0.14285-0.01785-0.0178-0.04462-0.0357-0.06248-0.0536-0.01785-0.0178-0.04462-0.0357-0.06248-0.0536-0.04463-0.0357-0.08032-0.0714-0.12489-0.10713-0.01785-0.0178-0.0357-0.0357-0.05355-0.0625-0.0357-0.0357-0.08024-0.0714-0.11596-0.11606-0.0357-0.0357-0.0714-0.0803-0.10704-0.125-0.01785-0.0178-0.0357-0.0357-0.05355-0.0625-0.0089-0.0178-0.02677-0.0446-0.04462-0.0625-0.01785-0.0268-0.0357-0.0446-0.05355-0.0714-0.0089-0.0179-0.02677-0.0446-0.04463-0.0625-0.0089-0.0268-0.02677-0.0446-0.04462-0.0714-0.0089-0.0268-0.02677-0.0446-0.04463-0.0714-0.02677-0.0446-0.05355-0.0982-0.08024-0.14285-0.0357-0.0714-0.0714-0.15177-0.10705-0.2232-0.12488-0.28568-0.21408-0.58925-0.25868-0.90172-0.02677-0.17856-0.0357-0.34819-0.0357-0.52674 0-0.41962 0.08916-0.83923 0.24084-1.2142 0.01785-0.0536 0.0357-0.10712 0.06248-0.15178 0.0089-0.0268 0.01785-0.0536 0.0357-0.0803 0.0089-0.0178 0.01785-0.0446 0.0357-0.0714 0.02677-0.0446 0.05355-0.0982 0.08024-0.14284 0.0089-0.0268 0.02677-0.0446 0.0357-0.0714 0.02677-0.0446 0.06248-0.0893 0.08916-0.13392 0.01786-0.0268 0.0357-0.0446 0.04463-0.0714 0.01785-0.0179 0.0357-0.0446 0.05355-0.0625 0.02677-0.0446 0.06248-0.0893 0.09813-0.125 0.01785-0.0268 0.0357-0.0446 0.05355-0.0625 0.01786-0.0268 0.0357-0.0446 0.05355-0.0625 0.01785-0.0178 0.0357-0.0446 0.05355-0.0625 0.01785-0.0178 0.04463-0.0357 0.06248-0.0536 0.01785-0.0268 0.0357-0.0446 0.05355-0.0625 0.02677-0.0179 0.04462-0.0357 0.06248-0.0536 0.01785-0.0179 0.04463-0.0357 0.06248-0.0536 0.01785-0.0178 0.04462-0.0357 0.06247-0.0536 0.01785-0.0178 0.04462-0.0357 0.06248-0.0536 0.02677-0.0179 0.04462-0.0357 0.06248-0.0446 0.02677-0.0179 0.04463-0.0357 0.0714-0.0536 0.01785-0.0179 0.04462-0.0268 0.0714-0.0446 0.01785-0.0178 0.04462-0.0357 0.06248-0.0446 0.02677-0.0178 0.04463-0.0268 0.0714-0.0446 0.02677-0.0179 0.04462-0.0268 0.0714-0.0446 0.02677-9e-3 0.05355-0.0268 0.0714-0.0357 0.02677-0.0179 0.05355-0.0268 0.08024-0.0446 0.01785-9e-3 0.04463-0.0179 0.0714-0.0357 0.05355-0.0179 0.09812-0.0446 0.15164-0.0625 0.02677-0.0179 0.05355-0.0268 0.08024-0.0357 0.02677-9e-3 0.05355-0.0179 0.08024-0.0268 0.02677-9e-3 0.05355-0.0179 0.08032-0.0268 0.02677-9e-3 0.05355-0.0179 0.08024-0.0268 0.02677-9e-3 0.05355-0.0178 0.08032-0.0268s0.05355-0.0178 0.08024-0.0178c0.0357-9e-3 0.06248-0.0179 0.08925-0.0268 0.02677 0 0.05355-9e-3 0.08024-0.0179 0.0357 0 0.06248-9e-3 0.08917-9e-3 0.02677-9e-3 0.05355-9e-3 0.08925-0.0179 0.02677 0 0.05355-9e-3 0.08032-9e-3 0.0357 0 0.06247-9e-3 0.08916-9e-3 0.02677 0 0.06248-9e-3 0.08925-9e-3h0.08925c0.02677-9e-3 0.05355-9e-3 0.08024-9e-3h0.08925c0.02677 0 0.05355 0 0.08032 9e-3h0.08916c0.02677 0 0.05355 0 0.08032 9e-3 0.06248 0 0.11596 9e-3 0.16949 0.0179 0.02677 0 0.05355 9e-3 0.08024 9e-3 0.05355 9e-3 0.11596 0.0179 0.16949 0.0268 0.05355 0.0178 0.10704 0.0268 0.16056 0.0446 0.05355 9e-3 0.10705 0.0268 0.16056 0.0446 0.04463 0.0179 0.09813 0.0357 0.15165 0.0536 0.05355 0.0179 0.09812 0.0357 0.15164 0.0625 0.05355 0.0179 0.09812 0.0446 0.15165 0.0625 0.36572 0.17857 0.70469 0.42855 0.98122 0.72317 0.1338 0.13392 0.24977 0.28569 0.3568 0.44639 0.0357 0.0446 0.06248 0.0893 0.08925 0.14285 0.01785 0.0179 0.02677 0.0446 0.04463 0.0714 0.01785 0.0178 0.02677 0.0446 0.04462 0.0714 0.0089 0.0268 0.01785 0.0446 0.0357 0.0714 0.02677 0.0536 0.04463 0.0982 0.0714 0.15179 0.04463 0.10712 0.08925 0.20533 0.12489 0.31247 0.01785 0.0536 0.02677 0.11608 0.04463 0.16964 0.0089 0.0268 0.01785 0.0536 0.02677 0.0803 0 0.0268 0.0089 0.0536 0.01785 0.0803 0 0.0357 0.0089 0.0625 0.01785 0.0893 0 0.0268 0.0089 0.0536 0.0089 0.0893 0.0089 0.0268 0.01785 0.0536 0.01785 0.0803zm0.54413 9.7583c0 0.0268 0 0.0446 0.0089 0.0714 0 0.0268 0 0.0536 0.0089 0.0803 0.0089 0.0804 0.0089 0.15176 0.0089 0.23212v0.0714 0.0803 0.0803c-0.0089 0.0179-0.0089 0.0446-0.0089 0.0714-0.0089 0.0714-0.01785 0.15179-0.02677 0.22321-0.0089 0.0268-0.0089 0.0536-0.01785 0.0714-0.01786 0.0982-0.0357 0.19642-0.06248 0.29463-0.0089 0.0179-0.01784 0.0446-0.02677 0.0714 0 0.0179-0.0089 0.0446-0.01785 0.0625-0.0089 0.0268-0.01785 0.0536-0.02677 0.0714-0.01786 0.0446-0.0357 0.0893-0.05355 0.13392-0.01785 0.0446-0.0357 0.0893-0.06248 0.13392-0.08024 0.17855-0.18733 0.34819-0.30329 0.49996-0.04462 0.0625-0.08916 0.11607-0.1338 0.16963-0.08032 0.0893-0.16949 0.17857-0.25869 0.25892-0.0714 0.0714-0.14272 0.13392-0.223 0.18749-0.08024 0.0625-0.16057 0.11606-0.24977 0.16962-0.01785 9e-3 -0.0357 0.0268-0.06248 0.0357-0.01785 9e-3 -0.04463 0.0268-0.06248 0.0357-0.02677 9e-3 -0.04462 0.0268-0.06248 0.0357-0.1338 0.0625-0.27652 0.12499-0.41925 0.16963-0.02677 9e-3 -0.05355 0.0178-0.0714 0.0268-0.02677 9e-3 -0.05355 9e-3 -0.0714 0.0178-0.02677 9e-3 -0.05355 0.0179-0.08024 0.0179-0.02677 9e-3 -0.04462 0.0178-0.07131 0.0178-0.05355 0.0179-0.10704 0.0268-0.15164 0.0357-0.02677 0-0.05355 9e-3 -0.08024 9e-3 -0.02677 0-0.05355 9e-3 -0.08024 9e-3 -0.02677 9e-3 -0.05355 9e-3 -0.0714 9e-3 -0.02677 0-0.05355 9e-3 -0.08032 9e-3h-0.08024-0.0714c-0.02677 9e-3 -0.05355 9e-3 -0.08032 9e-3 -0.02677-9e-3 -0.05355-9e-3 -0.0714-9e-3h-0.08024c-0.02677 0-0.05355 0-0.0714-9e-3 -0.02677 0-0.05355 0-0.08032-9e-3 -0.02677 0-0.04463 0-0.0714-9e-3 -0.02677 0-0.05355 0-0.0714-9e-3 -0.02677 0-0.05355-9e-3 -0.08024-9e-3 -0.01785-9e-3 -0.04462-9e-3 -0.0714-0.0179-0.02677 0-0.04462-9e-3 -0.0714-0.0179-0.02677 0-0.04463-9e-3 -0.0714-0.0179-0.0714-0.0178-0.14272-0.0357-0.21409-0.0625-0.01784-9e-3 -0.04462-0.0178-0.07131-0.0268-0.01785-9e-3 -0.04462-0.0178-0.06248-0.0268-0.04462-0.0178-0.08925-0.0357-0.1338-0.0536-0.02677-9e-3 -0.04463-0.0179-0.0714-0.0357-0.01785-9e-3 -0.04462-0.0179-0.06247-0.0268-0.02677-9e-3 -0.04462-0.0268-0.06248-0.0357-0.02677-9e-3 -0.04463-0.0268-0.06248-0.0357-0.04462-0.0268-0.08925-0.0536-0.12488-0.0804-0.06248-0.0357-0.12489-0.0803-0.18733-0.12498-0.01785-9e-3 -0.0357-0.0268-0.05355-0.0357-0.01785-0.0179-0.0357-0.0357-0.05355-0.0536l-0.06248-0.0446c-0.01785-0.0178-0.0357-0.0268-0.05355-0.0446-0.01785-0.0179-0.0357-0.0357-0.05355-0.0536-0.01784-0.0178-0.0357-0.0357-0.05355-0.0536-0.02677-0.0268-0.06248-0.0625-0.09812-0.0982-0.01785-0.0268-0.02677-0.0446-0.04463-0.0625-0.01785-0.0178-0.0357-0.0357-0.05355-0.0536-0.0089-0.0179-0.02677-0.0357-0.04463-0.0536-0.0089-0.0179-0.02677-0.0446-0.04462-0.0625-0.0089-0.0178-0.02677-0.0357-0.04463-0.0625-0.0089-0.0178-0.02677-0.0357-0.0357-0.0536-0.01785-0.0268-0.02677-0.0446-0.04463-0.0625-0.0089-0.0268-0.02677-0.0446-0.0357-0.0625-0.01785-0.0268-0.02677-0.0446-0.0357-0.0625-0.01785-0.0268-0.02677-0.0446-0.0357-0.0714-0.02677-0.0446-0.05355-0.0893-0.0714-0.13392-0.0089-0.0178-0.01785-0.0446-0.02677-0.0625-0.01785-0.0268-0.02677-0.0446-0.0357-0.0714-0.0089-0.0268-0.01785-0.0446-0.02677-0.0714-0.01785-0.0446-0.0357-0.0893-0.05355-0.14285-0.0089-0.0178-0.0089-0.0446-0.01786-0.0714-0.01785-0.0446-0.02677-0.0982-0.04462-0.14284-0.02677-0.10713-0.04462-0.20535-0.05355-0.31249-0.02677-0.15176-0.0357-0.30354-0.0357-0.46424 0.0089-0.86601 0.38357-1.6606 0.99907-2.2231 0.0357-0.0268 0.07131-0.0625 0.10704-0.0893 0.04463-0.0357 0.08032-0.0625 0.11596-0.0893 0.04462-0.0357 0.08032-0.0625 0.12488-0.0893 0.01785-9e-3 0.0357-0.0268 0.06248-0.0357 0.01785-0.0179 0.04462-0.0268 0.06248-0.0446 0.01785-9e-3 0.04463-0.0268 0.06248-0.0357 0.01785-9e-3 0.04463-0.0268 0.06248-0.0357 0.02677-9e-3 0.04462-0.0268 0.0714-0.0357 0.01785-9e-3 0.04463-0.0179 0.06248-0.0357 0.02677-9e-3 0.04462-0.0178 0.0714-0.0268 0.01785-9e-3 0.04463-0.0179 0.0714-0.0268 0.01785-0.0179 0.04462-0.0268 0.06248-0.0357 0.02677-9e-3 0.05355-0.0179 0.0714-0.0268 0.02677 0 0.05355-9e-3 0.0714-0.0179 0.0714-0.0268 0.15164-0.0446 0.22301-0.0625 0.02677-9e-3 0.05355-0.0178 0.0714-0.0178 0.08032-0.0179 0.16056-0.0357 0.23193-0.0446 0.18732-0.0268 0.36573-0.0357 0.54413-0.0268h0.0714c0.02677 0 0.05355 0 0.08024 9e-3 0.04463 0 0.09812 9e-3 0.14272 9e-3 0.02677 9e-3 0.05355 9e-3 0.08032 0.0179 0.01785 0 0.04463 9e-3 0.0714 9e-3 0.02677 9e-3 0.04462 9e-3 0.0714 0.0179 0.02677 0 0.05355 9e-3 0.0714 0.0179 0.02677 0 0.05355 9e-3 0.0714 0.0178 0.02677 0 0.05355 9e-3 0.0714 0.0179 0.02677 9e-3 0.05355 9e-3 0.0714 0.0178 0.02677 9e-3 0.04463 0.0179 0.0714 0.0268 0.02677 9e-3 0.04462 0.0179 0.0714 0.0268 0.01785 0 0.04462 9e-3 0.06248 0.0179 0.05355 0.0268 0.09812 0.0446 0.14273 0.0625 0.01785 9e-3 0.04463 0.0179 0.06248 0.0268 0.04462 0.0268 0.08925 0.0446 0.1338 0.0714 0.01785 9e-3 0.0357 0.0268 0.06248 0.0357 0.01785 9e-3 0.0357 0.0268 0.06248 0.0357 0.01785 0.0179 0.0357 0.0268 0.06248 0.0357 0.01785 0.0179 0.0357 0.0268 0.05355 0.0446 0.06248 0.0446 0.12489 0.0803 0.17841 0.12499 0.01785 0.0179 0.04462 0.0357 0.06248 0.0536l0.05355 0.0446c0.01785 0.0179 0.0357 0.0268 0.05355 0.0446s0.0357 0.0357 0.05355 0.0536c0.01785 0.0178 0.0357 0.0357 0.05355 0.0536 0.01785 9e-3 0.0357 0.0268 0.05355 0.0446 0.0089 0.0179 0.02677 0.0357 0.04463 0.0536 0.01785 0.0179 0.0357 0.0357 0.05355 0.0625 0.04463 0.0536 0.08925 0.10713 0.1338 0.16964 0.01785 0.0179 0.02677 0.0357 0.04463 0.0536 0.0089 0.0268 0.02677 0.0446 0.04463 0.0625 0.0089 0.0268 0.02677 0.0446 0.0357 0.0625 0.01785 0.0178 0.02677 0.0446 0.0357 0.0625 0.01785 0.0268 0.02677 0.0446 0.04462 0.0625 0.0089 0.0268 0.01786 0.0446 0.0357 0.0714 0.0089 0.0179 0.01785 0.0446 0.02677 0.0625 0.01785 0.0268 0.02677 0.0446 0.0357 0.0714 0.0089 0.0179 0.02677 0.0446 0.0357 0.0625 0.0089 0.0268 0.01786 0.0446 0.02677 0.0714 0.0089 0.0179 0.01785 0.0446 0.02677 0.0714 0.0089 0.0179 0.01785 0.0446 0.02677 0.0714 0.0089 0.0178 0.01785 0.0446 0.02677 0.0714 0.0089 0.0179 0.01785 0.0446 0.01785 0.0714 0.0089 0.0268 0.01786 0.0446 0.02677 0.0714 0.0089 0.0268 0.0089 0.0536 0.01785 0.0714 0.0089 0.0268 0.0089 0.0536 0.01785 0.0803 0.0089 0.0268 0.0089 0.0446 0.01784 0.0714 0 0.0268 0.0089 0.0536 0.0089 0.0803 0.0089 0.0268 0.0089 0.0536 0.01785 0.0803zm0.46385 8.7405v0.0625c0.0089 0.0179 0.0089 0.0446 0.0089 0.0625s0.0089 0.0446 0.0089 0.0625v0.0625 0.0625c0 0.0803 0 0.16963-0.0089 0.24998 0 0.0803-0.01785 0.1607-0.02677 0.24106-0.0357 0.17857-0.08916 0.34819-0.16056 0.51782-0.08024 0.17857-0.17841 0.35712-0.29438 0.51782-0.0357 0.0446-0.0714 0.0893-0.11596 0.13392-0.08916 0.10713-0.1784 0.19642-0.28544 0.28571l-0.01785 0.0179c-0.0357 0.0268-0.08024 0.0625-0.12489 0.0893-0.07131 0.0536-0.15165 0.10713-0.23193 0.15179-0.02677 9e-3 -0.04463 0.0178-0.06248 0.0268-0.24084 0.12499-0.50845 0.21428-0.79389 0.25892-0.33897 0.0446-0.66902 0.0268-0.98123-0.0536-0.01785-9e-3 -0.0357-0.0179-0.05355-0.0179-0.08024-0.0268-0.15165-0.0536-0.23193-0.0803-0.08925-0.0357-0.1784-0.0804-0.2676-0.125-0.05355-0.0268-0.10705-0.0625-0.15165-0.0893l-0.05355-0.0357c-0.01785-9e-3 -0.02677-0.0179-0.04462-0.0357-0.05355-0.0357-0.09812-0.0714-0.14272-0.10712-0.02677-0.0268-0.06248-0.0536-0.08925-0.0804s-0.06248-0.0536-0.08925-0.0803c-0.0357-0.0446-0.08024-0.0803-0.11596-0.13392-0.01784-9e-3 -0.02677-0.0268-0.04463-0.0446-0.0089-9e-3 -0.01785-0.0268-0.0357-0.0446l-0.0357-0.0446c-0.0089-0.0178-0.02677-0.0357-0.0357-0.0536l-0.0357-0.0446-0.02677-0.0536-0.0357-0.0536c-0.0089-9e-3 -0.01785-0.0268-0.02677-0.0446-0.0089-0.0179-0.02677-0.0357-0.0357-0.0536l-0.02677-0.0536c-0.0089-0.0178-0.01785-0.0357-0.02677-0.0536-0.0089-0.0268-0.01785-0.0446-0.02677-0.0625-0.0089-0.0179-0.0089-0.0357-0.01785-0.0536-0.02677-0.0536-0.04463-0.11606-0.07131-0.16963 0-0.0268-0.0089-0.0446-0.01785-0.0625l-0.01785-0.0625c0-0.0179-0.0089-0.0357-0.0089-0.0625-0.01785-0.0357-0.02677-0.0804-0.02677-0.11606-0.0089-0.0446-0.01785-0.0893-0.02677-0.125-0.01785-0.10713-0.01785-0.21426-0.02677-0.3214v-0.12499l0.0089-0.0625v-0.0536c0-0.0268 0.0089-0.0446 0.0089-0.0625 0-0.0446 0.0089-0.0803 0.01785-0.12499 0-0.0179 0.0089-0.0357 0.0089-0.0625 0-0.0179 0.0089-0.0357 0.0089-0.0536 0.0089-0.0179 0.0089-0.0446 0.01785-0.0625l0.0089-0.0536c0.0089-0.0268 0.01785-0.0446 0.01785-0.0625 0.0089-0.0357 0.02677-0.0803 0.0357-0.11605l0.02677-0.0536 0.01785-0.0536c0.01785-0.0625 0.04462-0.11605 0.0714-0.16962l0.02677-0.0536c0.01785-0.0357 0.0357-0.0714 0.05355-0.0982 0.37465-0.64281 1.0169-1.1071 1.793-1.2231 0.1338-0.0179 0.25868-0.0179 0.38357-0.0179h0.11596 0.0089c0.0357 0 0.08032 9e-3 0.11595 9e-3 0.01786 9e-3 0.04463 9e-3 0.06248 9e-3 0.04462 9e-3 0.08024 9e-3 0.12489 0.0179 0.0357 9e-3 0.08032 0.0179 0.11596 0.0268 0.0357 9e-3 0.08032 0.0178 0.11596 0.0357l0.05355 0.0179c0.09812 0.0268 0.19624 0.0625 0.28544 0.10713 0.05355 0.0178 0.10705 0.0446 0.16057 0.0803 0.44601 0.24106 0.82066 0.62496 1.0437 1.1071 0.06248 0.125 0.11596 0.25891 0.15164 0.40176l0.01785 0.0625c0.0089 0.0179 0.0089 0.0357 0.01785 0.0625 0 0.0179 0.0089 0.0357 0.0089 0.0625 0.0089 0.0179 0.0089 0.0357 0.0089 0.0625 0.0089 0.0179 0.0089 0.0357 0.01785 0.0625zm0.6155 8.1691c0.01785 0.11605 0.02677 0.23211 0.02677 0.33925v0.11608c-0.0089 0.0714-0.01785 0.14284-0.02677 0.21426-0.0089 0.0357-0.01785 0.0714-0.01785 0.10713-0.0089 0.0179-0.0089 0.0446-0.01785 0.0625-0.0089 0.0268-0.01785 0.0536-0.01785 0.0803-0.0089 0.0268-0.01785 0.0446-0.02677 0.0625l-0.0089 0.0536c-0.01785 0.0536-0.04463 0.0982-0.06248 0.15177-0.02677 0.0625-0.05355 0.11606-0.08032 0.17855l-0.01785 0.0268c-0.04462 0.0714-0.08032 0.13391-0.12489 0.19642-0.0089 0.0179-0.01785 0.0357-0.0357 0.0446-0.0089 0.0179-0.02677 0.0357-0.0357 0.0536l-0.0714 0.0892c-0.0357 0.0357-0.0714 0.0803-0.10704 0.11606-0.01786 9e-3 -0.02677 0.0268-0.04463 0.0357-0.0089 9e-3 -0.02677 0.0268-0.0357 0.0357-0.05355 0.0536-0.10705 0.0982-0.16056 0.13392-0.02677 0.0179-0.05355 0.0357-0.08032 0.0536l-0.02677 0.0179c-0.04462 0.0268-0.08024 0.0536-0.12489 0.0803l-0.04462 0.0268c-0.02677 9e-3 -0.04463 0.0268-0.0714 0.0357-0.01785 9e-3 -0.0357 0.0179-0.05355 0.0268-0.06248 0.0268-0.12488 0.0536-0.19624 0.0714-0.01785 9e-3 -0.04462 0.0179-0.0714 0.0268-0.01785 9e-3 -0.04462 0.0179-0.0714 0.0179-0.08925 0.0268-0.1784 0.0446-0.27652 0.0625-0.10705 0.0179-0.22301 0.0179-0.33896 0.0179h-0.10705c-0.0714-9e-3 -0.14272-9e-3 -0.21408-0.0268-0.0357 0-0.0714-9e-3 -0.10705-0.0179-0.0357-9e-3 -0.07131-0.0179-0.10704-0.0268l-0.05355-9e-3 -0.05355-0.0178-0.05355-0.0179c-0.02677-9e-3 -0.06248-0.0268-0.09812-0.0357l-0.04463-0.0268-0.05355-0.0179c-0.0357-0.0179-0.06248-0.0268-0.09812-0.0446l-0.04462-0.0268-0.08926-0.0536c-0.01785-9e-3 -0.0357-0.0178-0.04462-0.0268l-0.04463-0.0268-0.04463-0.0357-0.04462-0.0268c-0.02677-0.0268-0.05355-0.0446-0.08916-0.0714l-0.0357-0.0357-0.04462-0.0357-0.0714-0.0714c-0.02677-0.0268-0.05355-0.0536-0.0714-0.0714-0.08024-0.0803-0.14272-0.16963-0.20517-0.25891-0.1784-0.26784-0.30328-0.58032-0.34788-0.91958-0.06248-0.40175-0.0089-0.78566 0.1338-1.1338 0.02677-0.0893 0.0714-0.16963 0.10704-0.24998 0.02677-0.0446 0.05355-0.0893 0.08925-0.13392 0.01785-0.0268 0.0357-0.0625 0.05355-0.0893l0.0357-0.0446c0.01785-0.0268 0.04462-0.0536 0.06248-0.0804l0.0357-0.0446 0.0357-0.0357 0.0357-0.0446c0.02677-0.0179 0.05355-0.0446 0.08024-0.0714l0.0357-0.0357 0.04463-0.0357c0.0089-9e-3 0.02677-0.0268 0.0357-0.0357l0.04463-0.0357 0.04462-0.0268 0.0357-0.0357 0.04463-0.0268 0.04462-0.0357 0.05355-0.0268 0.08926-0.0536 0.05355-0.0268 0.04463-0.0179 0.05355-0.0268 0.04463-0.0179c0.01785-9e-3 0.0357-0.0179 0.05355-0.0268l0.1071-0.0358c0.01785 0 0.0357-9e-3 0.05355-0.0179 0.01785 0 0.0357-9e-3 0.05355-9e-3l0.05355-0.0179c0.01785 0 0.0357-9e-3 0.05355-9e-3l0.05355-0.0179 0.05355-9e-3c0.01784 0 0.04462-9e-3 0.06248-9e-3l0.05355-9e-3h0.05355l0.06248-9e-3h0.16958 0.05355 0.10705c0.01786 9e-3 0.0357 9e-3 0.05355 9e-3s0.0357 9e-3 0.06248 9e-3c0.01785 0 0.0357 0 0.05355 9e-3l0.16065 0.027 0.04463 0.0178c0.01785 0 0.0357 9e-3 0.05355 9e-3 0.05355 0.0179 0.10704 0.0357 0.15164 0.0536l0.1071 0.0358 0.04463 0.0268 0.04463 0.0179 0.05355 0.0268 0.04462 0.0268 0.04463 0.0268 0.04462 0.0268 0.05355 0.0268c0.0089 9e-3 0.02677 0.0179 0.04463 0.0268 0.02677 0.0268 0.05355 0.0446 0.08024 0.0625 0.04462 0.0357 0.08925 0.0714 0.12489 0.10712l0.04462 0.0357 0.0714 0.0714c0.02677 0.0268 0.05355 0.0446 0.08024 0.0714l0.0357 0.0446 0.02677 0.0446 0.0357 0.0357 0.0357 0.0446 0.02677 0.0446 0.0357 0.0446 0.08031 0.1338 0.02677 0.0536 0.02677 0.0446c0.01785 0.0357 0.0357 0.0625 0.04462 0.0982l0.02677 0.0536c0.01785 0.0446 0.0357 0.0982 0.05355 0.15177 0.01785 0.0357 0.02677 0.0714 0.0357 0.10713l0.01785 0.0536c0.01785 0.0714 0.02677 0.15176 0.0357 0.22319zm-17.109-50.97v-2.9552h-2.9972v2.9552zm11.284 76.477h-14.281v14.053h14.281zm-1.8822-3.0712v-12.205h-12.399v12.205h12.399zm-1.8822-14.999v-10.356h-10.517v10.356h10.517zm-1.8822-13.142v-8.5084h-8.6348v8.5084h8.6348zm-1.8732-12.08v-6.6513h-6.7615v6.6513h6.7615zm-0.7047-9.6243v-5.9639h-6.0568v5.9639h6.0568zm-1.1775-13.276h-4.8793v4.8032h4.8793v-4.8032zm-0.96338-3.2408v-3.8569h-3.916v3.8569zm41.256-4.7586v-0.34819c0-0.08032-9e-3 -0.1607-9e-3 -0.23212-9e-3 -0.0357-9e-3 -0.08032-9e-3 -0.11607-9e-3 -0.0357-9e-3 -0.0714-0.0179-0.10713-9e-3 -0.04462-9e-3 -0.08032-0.0179-0.11607 0-0.0357-9e-3 -0.0714-0.0179-0.11606-9e-3 -0.0357-9e-3 -0.0714-0.0178-0.10714-9e-3 -0.0357-0.0179-0.0714-0.0268-0.10714-9e-3 -0.0357-0.0179-0.0714-0.0268-0.10714-9e-3 -0.0357-0.0179-0.08032-0.0268-0.11606-0.0892-0.32141-0.223-0.62496-0.37465-0.91065-0.73146-1.3571-2.1319-2.3034-3.7732-2.3838h-0.23193-9e-3 -0.21409c-0.0536 0.0089-0.0981 0.0089-0.14272 0.0089-0.0714 0.0089-0.1338 0.01785-0.19625 0.02677-0.0892 0.0089-0.18732 0.02677-0.27651 0.0357-0.0892 0.01785-0.17841 0.04462-0.26762 0.06248-0.0536 0.01785-0.10702 0.02677-0.16056 0.04462-0.0893 0.02677-0.16949 0.05355-0.24977 0.08032l-0.0803 0.02677c-0.0892 0.0357-0.1784 0.0714-0.26761 0.11606-0.0803 0.0357-0.16948 0.08032-0.25869 0.12499l-0.0625 0.0357c-0.0536 0.02677-0.10702 0.06248-0.16056 0.08928-0.0446 0.02677-0.0893 0.05355-0.12489 0.08032-0.0803 0.05355-0.16056 0.10714-0.23193 0.16963-0.0357 0.01785-0.0625 0.0357-0.0892 0.06248-0.11597 0.08928-0.22301 0.18748-0.33005 0.28569-0.0536 0.05355-0.10702 0.09821-0.15165 0.15178-0.0268 0.02677-0.0536 0.05355-0.0803 0.08032-0.0268 0.02677-0.0446 0.05355-0.0714 0.08032-0.0981 0.11607-0.18733 0.22321-0.26761 0.34819-0.0446 0.05355-0.0893 0.11607-0.12488 0.17856-0.0179 0.0357-0.0357 0.06248-0.0625 0.09821-0.16948 0.27676-0.31221 0.58032-0.41925 0.90172-0.12488 0.3839-0.20516 0.80351-0.23192 1.2321v0.23212c0 0.42854 0.0536 0.83923 0.16947 1.241 0.0625 0.21427 0.1338 0.41961 0.22301 0.61602 0.0357 0.0714 0.0625 0.13392 0.0981 0.20535 0.4371 0.84816 1.124 1.5445 1.9803 1.982 0.0625 0.02677 0.1338 0.06248 0.19624 0.08927 0.23194 0.10714 0.46386 0.18749 0.71363 0.24998 0.0446 0.01786 0.0892 0.02677 0.1338 0.0357 0.0357 0.0089 0.0804 0.01785 0.11596 0.02677 0.0357 0.0089 0.0803 0.01785 0.12488 0.02677 0.0625 0.0089 0.1338 0.01785 0.19625 0.02677h0.0268c0.0714 0.0089 0.14272 0.01785 0.21408 0.02677 0.0357 0 0.0803 0 0.12489 0.0089h0.23192c0.15165 0 0.31221-0.0089 0.46385-0.01785 0.0357-0.0089 0.0714-0.0089 0.10702-0.01786 0.11597-0.0089 0.223-0.0357 0.33896-0.05355 0.0714-0.01785 0.14273-0.0357 0.21409-0.05355 0.18733-0.04463 0.35681-0.0982 0.52629-0.16963 0.0714-0.02677 0.14273-0.05355 0.20517-0.08928 0.0714-0.02677 0.13381-0.06248 0.19624-0.08927 0.0446-0.02677 0.0892-0.04462 0.13381-0.0714 0.0536-0.02677 0.10701-0.06248 0.16056-0.08928 0.0268-0.01785 0.0625-0.04462 0.0892-0.06248 0.0893-0.05355 0.1784-0.11606 0.26761-0.18748 0.0536-0.0357 0.10702-0.08032 0.16056-0.11607 0.0892-0.0714 0.16949-0.15177 0.25869-0.23212 0.0536-0.05355 0.10702-0.09821 0.15164-0.15178 0.0268-0.02677 0.0536-0.05355 0.0803-0.08032 0.0178-0.02677 0.0446-0.05355 0.0714-0.08032 0.0179-0.02677 0.0446-0.05355 0.0714-0.08928 0.0179-0.02677 0.0446-0.05355 0.0625-0.08032 0.0446-0.06248 0.0893-0.11606 0.13381-0.17856 0.0179-0.02677 0.0446-0.05355 0.0625-0.08928 0.0179-0.02677 0.0446-0.06248 0.0625-0.08928 0.0179-0.0357 0.0357-0.06248 0.0536-0.09821 0.0178-0.02677 0.0446-0.06248 0.0625-0.08927 0.0179-0.0357 0.0357-0.06248 0.0536-0.0982 0.0357-0.06248 0.0625-0.13392 0.0981-0.19642 0.0179-0.0357 0.0268-0.06248 0.0446-0.0982 0.0357-0.0714 0.0625-0.13392 0.0892-0.20535 9e-3 -0.0357 0.0268-0.0714 0.0357-0.10714 0.0268-0.0714 0.0536-0.14284 0.0714-0.21427 0.0179-0.0357 0.0268-0.0714 0.0357-0.10714 9e-3 -0.0357 0.0178-0.0714 0.0268-0.10713 9e-3 -0.0357 0.0179-0.0714 0.0268-0.10714 0.0179-0.08032 0.0357-0.15178 0.0446-0.22321 0.0357-0.19641 0.0625-0.3839 0.0714-0.58032zm-1.347 81.566c9e-3 -0.0625 9e-3 -0.11608 9e-3 -0.17857v-0.18748-0.18749c-9e-3 -0.24106-0.0268-0.4821-0.0536-0.72316-0.0178-0.11608-0.0357-0.23214-0.0536-0.35712-0.0357-0.1607-0.0714-0.32141-0.10702-0.48211-0.0178-0.0714-0.0357-0.14285-0.0536-0.20535-0.0357-0.11606-0.0714-0.2232-0.10702-0.33926-0.0357-0.10712-0.0804-0.2232-0.11597-0.33033-0.0446-0.10713-0.0893-0.21428-0.14272-0.32142-0.0178-0.0536-0.0446-0.10712-0.0714-0.1607-0.0268-0.0446-0.0536-0.0982-0.0803-0.15177-0.0625-0.13392-0.14272-0.26784-0.21408-0.39283-0.0714-0.12499-0.14273-0.24106-0.22301-0.35712-0.0357-0.0446-0.0625-0.0893-0.0981-0.14285-0.0357-0.0446-0.0714-0.0893-0.0981-0.13392-0.0357-0.0446-0.0714-0.0982-0.10702-0.14284-0.0357-0.0446-0.0714-0.0893-0.10702-0.13392-0.0357-0.0446-0.0803-0.0893-0.11597-0.13392-0.0357-0.0357-0.0714-0.0803-0.11597-0.12499-0.0357-0.0446-0.0713-0.0893-0.11595-0.12499-0.0357-0.0446-0.0804-0.0893-0.11596-0.12499-0.0446-0.0446-0.0893-0.0803-0.12488-0.125-0.0446-0.0357-0.0892-0.0803-0.12489-0.11606-0.0446-0.0357-0.0892-0.0804-0.1338-0.11607-0.0446-0.0357-0.0892-0.0714-0.1338-0.10712-0.0446-0.0357-0.0893-0.0803-0.13381-0.11607-0.1338-0.10712-0.27652-0.20534-0.41926-0.30354-0.0446-0.0357-0.0981-0.0625-0.14271-0.0982-0.0536-0.0268-0.0981-0.0625-0.15165-0.0893-0.0446-0.0268-0.0981-0.0625-0.14272-0.0893-0.0536-0.0268-0.10701-0.0536-0.16056-0.0893-0.0446-0.0268-0.0981-0.0536-0.15164-0.0803-0.0981-0.0536-0.20518-0.0982-0.31222-0.15178-0.0536-0.0178-0.10701-0.0446-0.16056-0.0714-0.0536-0.0179-0.10702-0.0446-0.16948-0.0625-0.0536-0.0268-0.10702-0.0446-0.16057-0.0625-0.0536-0.0179-0.11595-0.0446-0.16948-0.0625-0.10702-0.0357-0.22301-0.0714-0.33896-0.10712-0.0536-9e-3 -0.11597-0.0268-0.16949-0.0446-0.0625-9e-3 -0.11596-0.0268-0.1784-0.0446-0.11597-0.0268-0.23192-0.0446-0.35682-0.0714-0.0536-9e-3 -0.11596-0.0179-0.1784-0.0268-0.0625-9e-3 -0.11596-0.0179-0.1784-0.0268-0.0625-9e-3 -0.12488-9e-3 -0.18733-0.0179-0.0536-9e-3 -0.11597-9e-3 -0.1784-0.0178-0.0625 0-0.12488-9e-3 -0.18732-9e-3 -0.0625 0-0.12489-9e-3 -0.18733-9e-3h-0.18733-0.1784c-0.0625 0-0.12487 9e-3 -0.18732 9e-3 -0.0536 0-0.11597 9e-3 -0.17841 9e-3 -0.0625 9e-3 -0.12488 9e-3 -0.1784 0.0178-0.0625 9e-3 -0.12489 0.0179-0.17841 0.0179-0.0625 9e-3 -0.12488 0.0179-0.1784 0.0268-0.0625 9e-3 -0.12488 0.0178-0.1784 0.0357-0.0625 9e-3 -0.11597 0.0179-0.17841 0.0268-0.0536 0.0178-0.11597 0.0268-0.16948 0.0446-0.0625 9e-3 -0.11596 0.0268-0.17841 0.0357-0.0536 0.0179-0.10702 0.0357-0.16948 0.0536-0.0536 9e-3 -0.10702 0.0268-0.16949 0.0446-0.10701 0.0357-0.22299 0.0714-0.33004 0.11605-0.10702 0.0357-0.21409 0.0804-0.32113 0.12501-0.10702 0.0446-0.21408 0.0982-0.32113 0.14284-0.16056 0.0803-0.3122 0.1607-0.46385 0.24998-0.0446 0.0268-0.0981 0.0536-0.14273 0.0803-0.10701 0.0625-0.19623 0.12499-0.29436 0.18748-0.0536 0.0357-0.0981 0.0714-0.14272 0.0982-0.18733 0.13392-0.37466 0.27677-0.54413 0.42854-0.0446 0.0357-0.0892 0.0804-0.13382 0.11608-0.24975 0.23211-0.4906 0.4821-0.7136 0.74993-0.0357 0.0446-0.0714 0.0893-0.10702 0.13392-0.14272 0.17856-0.27652 0.37498-0.4014 0.56247-0.0981 0.15178-0.18733 0.30355-0.26762 0.45532-0.0268 0.0536-0.0536 0.0982-0.0803 0.15178-0.0268 0.0536-0.0536 0.10712-0.0803 0.16071-0.223 0.47317-0.40142 0.97314-0.5263 1.4999-0.0179 0.0625-0.0268 0.11605-0.0357 0.17854-0.0714 0.35712-0.12487 0.72318-0.14272 1.0892-0.0179 0.37497 0 0.74102 0.0357 1.1071 9e-3 0.11606 0.0268 0.23213 0.0446 0.35712 0.0357 0.23213 0.0803 0.46425 0.14271 0.69639 0.0179 0.0536 0.0268 0.11605 0.0446 0.16962 0.0357 0.11606 0.0714 0.2232 0.10702 0.33926 0.0178 0.0536 0.0357 0.10713 0.0536 0.1607 0.0268 0.0536 0.0446 0.10713 0.0625 0.16964 0.0268 0.0536 0.0446 0.10713 0.0714 0.1607 0.0179 0.0536 0.0446 0.10713 0.0714 0.1607 0.0446 0.10713 0.0981 0.20535 0.15164 0.31248 0.0179 0.0536 0.0536 0.0982 0.0804 0.15178 0.0268 0.0536 0.0536 0.0982 0.0803 0.15177 0.0268 0.0536 0.0625 0.0982 0.0892 0.15177 0.0268 0.0446 0.0625 0.0982 0.0893 0.14286 0.0357 0.0536 0.0625 0.0982 0.0981 0.14285 0.0268 0.0536 0.0625 0.0982 0.0981 0.14284 0.0357 0.0536 0.0625 0.0982 0.0981 0.14285 0.10702 0.14285 0.21409 0.27676 0.33004 0.40176 0.0357 0.0446 0.0714 0.0893 0.11597 0.13392 0.0357 0.0446 0.0714 0.0803 0.11597 0.125 0.0357 0.0446 0.0803 0.0803 0.11595 0.12498 0.0446 0.0446 0.0803 0.0803 0.12489 0.11606 0.0446 0.0446 0.0802 0.0804 0.12488 0.125 0.0446 0.0357 0.0893 0.0714 0.1338 0.11606 0.0446 0.0357 0.0892 0.0714 0.12489 0.10713 0.0446 0.0357 0.0981 0.0714 0.14273 0.10712 0.0446 0.0357 0.0892 0.0714 0.1338 0.10713 0.0446 0.0357 0.0892 0.0714 0.14271 0.10713 0.0446 0.0268 0.0893 0.0625 0.14272 0.0982 0.0446 0.0268 0.0893 0.0625 0.14274 0.0893 0.0446 0.0357 0.0981 0.0625 0.14272 0.0982 0.0536 0.0268 0.10702 0.0536 0.15164 0.0893 0.0536 0.0268 0.10702 0.0536 0.15164 0.0803 0.0536 0.0268 0.10702 0.0536 0.16057 0.0804 0.0446 0.0268 0.0981 0.0536 0.15164 0.0803 0.0536 0.0268 0.10702 0.0536 0.16056 0.0804 0.0536 0.0179 0.10702 0.0446 0.16056 0.0625 0.0536 0.0268 0.10702 0.0446 0.16057 0.0714 0.0625 0.0178 0.11597 0.0446 0.16948 0.0625 0.0536 0.0178 0.10702 0.0357 0.16949 0.0625 0.0536 0.0178 0.10702 0.0357 0.16949 0.0536 0.0536 0.0178 0.10701 0.0357 0.16947 0.0446 0.0536 0.0179 0.11598 0.0357 0.16949 0.0536 0.0625 9e-3 0.11597 0.0268 0.17841 0.0357 0.0536 0.0179 0.11595 0.0268 0.17841 0.0446 0.0536 9e-3 0.11595 0.0179 0.17839 0.0268 0.0536 0.0179 0.11597 0.0268 0.17841 0.0357 0.0536 9e-3 0.11597 0.0178 0.1784 0.0268 0.0625 0 0.12489 9e-3 0.17841 0.0178 0.0625 9e-3 0.12488 9e-3 0.18733 0.0179 0.0625 0 0.12487 9e-3 0.18732 9e-3 0.0625 0 0.12488 0 0.18732 9e-3h0.36574c0.24084-9e-3 0.48169-0.0268 0.72253-0.0625 0.0714-9e-3 0.1338-0.0179 0.20516-0.0268 0.10702-0.0179 0.21409-0.0357 0.33005-0.0625 0.0536-9e-3 0.11597-0.0179 0.16948-0.0357 0.16057-0.0357 0.31221-0.0803 0.46385-0.12499l0.0892-0.0268c0.0981-0.0268 0.19625-0.0625 0.29438-0.0982 0.0892-0.0357 0.18732-0.0714 0.27653-0.10713l0.0981-0.0446c0.21407-0.0982 0.43708-0.19641 0.64224-0.31248 0.0981-0.0625 0.19625-0.11605 0.29436-0.17856 0.0804-0.0446 0.15166-0.0982 0.23194-0.15176 0.0446-0.0268 0.0981-0.0625 0.14272-0.0982 0.15165-0.0982 0.29437-0.21428 0.42817-0.33034 0.5709-0.47318 1.0704-1.0267 1.4718-1.6606 0.0268-0.0446 0.0625-0.0982 0.0893-0.14285 0.0446-0.0714 0.0803-0.13392 0.12489-0.20535 0.0981-0.18749 0.19624-0.37496 0.28545-0.57138 0.0268-0.0536 0.0446-0.10713 0.0714-0.16071 0.0446-0.10713 0.0892-0.21427 0.12488-0.33033 0.0446-0.10713 0.0803-0.2232 0.11597-0.33034 0.0357-0.11605 0.0714-0.23212 0.0981-0.34819 0.0446-0.16963 0.0802-0.34819 0.11595-0.52675 9e-3 -0.0625 0.0179-0.12498 0.0268-0.17856 9e-3 -0.0625 0.0179-0.12499 0.0268-0.18748 9e-3 -0.0536 0.0178-0.11607 0.0178-0.17857 9e-3 -0.0625 0.0179-0.12499 0.0179-0.18748 9e-3 -0.0625 9e-3 -0.12499 9e-3 -0.18749zm0.54413-18.704v-0.16963c0-0.0625 9e-3 -0.12499 9e-3 -0.17855 0-0.0625-9e-3 -0.11607-9e-3 -0.17857 0-0.0536 0-0.11605-9e-3 -0.16963 0-0.0625 0-0.11606-9e-3 -0.16963-9e-3 -0.17856-0.0268-0.34819-0.0536-0.51781-0.0179-0.10713-0.0446-0.22322-0.0625-0.33034-9e-3 -0.0536-0.0268-0.11607-0.0357-0.16964-0.0268-0.10713-0.0536-0.21427-0.0892-0.3214-0.0446-0.1607-0.0981-0.3214-0.15164-0.48211-0.16948-0.46425-0.39249-0.91958-0.6601-1.3303-0.0893-0.14284-0.1784-0.27676-0.28544-0.41068-0.0446-0.0625-0.0892-0.125-0.14273-0.18749-0.11596-0.15178-0.24976-0.29462-0.38356-0.43747-0.0713-0.0803-0.15164-0.15178-0.23192-0.23213-0.0803-0.0714-0.16057-0.15177-0.24085-0.2232-0.0893-0.0803-0.18733-0.1607-0.28545-0.23212-0.10702-0.0803-0.21408-0.16071-0.33005-0.24107-0.0268-0.0179-0.0536-0.0357-0.0892-0.0625-0.0714-0.0446-0.15165-0.0982-0.22301-0.14284-0.0714-0.0446-0.14272-0.0803-0.21408-0.12499-0.11597-0.0625-0.24084-0.13392-0.37465-0.19642-0.0981-0.0446-0.19624-0.0893-0.30328-0.13392-0.31222-0.13392-0.62442-0.24106-0.96339-0.32142-0.4371-0.11605-0.89202-0.18748-1.3648-0.21426-0.24085-9e-3 -0.47277-9e-3 -0.7047 9e-3 -0.23193 9e-3 -0.45493 0.0357-0.67793 0.0625-0.11596 0.0178-0.23192 0.0446-0.33897 0.0625-0.0536 9e-3 -0.10702 0.0268-0.16056 0.0357-0.11597 0.0268-0.22301 0.0536-0.33005 0.0893-0.16056 0.0446-0.32113 0.0982-0.47277 0.15178-0.0536 0.0179-0.10702 0.0357-0.16057 0.0625-0.0981 0.0357-0.20516 0.0804-0.30329 0.12499-0.0536 0.0268-0.0981 0.0446-0.15164 0.0714-0.0981 0.0446-0.19624 0.0982-0.29436 0.15179-0.0981 0.0536-0.19625 0.10712-0.28546 0.1607-0.0446 0.0357-0.0981 0.0625-0.14272 0.0893-0.0446 0.0268-0.0893 0.0625-0.1338 0.0893-0.0446 0.0357-0.0893 0.0625-0.13381 0.0982-0.0446 0.0268-0.0892 0.0625-0.1338 0.0982-0.0446 0.0268-0.0893 0.0625-0.1338 0.0982-0.0446 0.0357-0.0892 0.0625-0.12488 0.0982-0.0446 0.0357-0.0893 0.0714-0.12489 0.10712-0.0446 0.0357-0.0892 0.0714-0.12488 0.10713-0.0446 0.0357-0.0803 0.0804-0.12488 0.11605-0.0357 0.0357-0.0714 0.0714-0.11596 0.11607-0.0357 0.0357-0.0714 0.0714-0.11596 0.11606-0.0357 0.0357-0.0714 0.0803-0.10702 0.11607-0.0357 0.0446-0.0714 0.0803-0.11597 0.12499-0.0357 0.0446-0.0714 0.0803-0.0981 0.12499-0.0357 0.0446-0.0714 0.0893-0.10702 0.13392-0.0357 0.0357-0.0714 0.0803-0.0981 0.12499-0.0357 0.0446-0.0714 0.0893-0.0981 0.13392-0.0357 0.0446-0.0625 0.0893-0.0981 0.13392-0.0268 0.0446-0.0625 0.0982-0.0892 0.14285-0.0268 0.0446-0.0625 0.0893-0.0893 0.13391-0.0268 0.0536-0.0536 0.0982-0.0803 0.14286-0.0268 0.0536-0.0536 0.0982-0.0802 0.15176-0.0268 0.0446-0.0536 0.0982-0.0803 0.14285-0.0268 0.0536-0.0536 0.0982-0.0713 0.15178-0.0268 0.0536-0.0536 0.0982-0.0714 0.15178-0.0268 0.0536-0.0446 0.0982-0.0714 0.15177-0.0179 0.0536-0.0446 0.10713-0.0625 0.15178-0.0179 0.0536-0.0357 0.10713-0.0625 0.16071-0.0179 0.0536-0.0357 0.10712-0.0536 0.1607-0.0179 0.0536-0.0357 0.10712-0.0536 0.1607-0.0178 0.0536-0.0268 0.10712-0.0446 0.1607-0.0178 0.0536-0.0268 0.10712-0.0446 0.16962-0.0179 0.0536-0.0268 0.10713-0.0446 0.16072-9e-3 0.0536-0.0178 0.11606-0.0357 0.16963-9e-3 0.0536-0.0179 0.11606-0.0268 0.16963-9e-3 0.0536-0.0178 0.11607-0.0268 0.16963-9e-3 0.0625-0.0178 0.11606-0.0268 0.16963-9e-3 0.0625-0.0179 0.11607-0.0179 0.17856-9e-3 0.0536-9e-3 0.11607-0.0178 0.16963 0 0.0625-9e-3 0.12499-9e-3 0.17857 0 0.0625-9e-3 0.11606-9e-3 0.17855v0.17857c0 0.11605 0 0.23212 9e-3 0.34819 0 0.0536 9e-3 0.11605 9e-3 0.16963 9e-3 0.11605 0.0268 0.23212 0.0357 0.34818 0.0178 0.10713 0.0357 0.2232 0.0536 0.33033 9e-3 0.0625 0.0179 0.11608 0.0357 0.16964 9e-3 0.0536 0.0179 0.10713 0.0357 0.16071 9e-3 0.0625 0.0268 0.11605 0.0357 0.16963 0.0268 0.10712 0.0625 0.21427 0.0892 0.3214 0.0179 0.0536 0.0357 0.10713 0.0536 0.16071 0.0178 0.0536 0.0357 0.10713 0.0536 0.16069 0.0268 0.0446 0.0446 0.0982 0.0625 0.15178 0.0178 0.0536 0.0446 0.10713 0.0625 0.15178 0.0268 0.0536 0.0446 0.10712 0.0714 0.15177 0.0178 0.0536 0.0446 0.10713 0.0625 0.15178 0.0268 0.0536 0.0536 0.0982 0.0803 0.15177 0.0179 0.0446 0.0446 0.0982 0.0714 0.14285 0.0268 0.0536 0.0536 0.0982 0.0802 0.14285 0.0268 0.0536 0.0625 0.0982 0.0892 0.14285 0.0268 0.0446 0.0536 0.0982 0.0803 0.14284 0.0357 0.0446 0.0625 0.0893 0.0981 0.13392 0.0268 0.0446 0.0625 0.0893 0.0893 0.13392 0.0357 0.0446 0.0625 0.0893 0.0981 0.13392 0.0357 0.0446 0.0625 0.0893 0.0981 0.13392 0.0357 0.0446 0.0714 0.0893 0.10701 0.125 0.0357 0.0446 0.0714 0.0893 0.10702 0.12498 0.0357 0.0446 0.0714 0.0893 0.10702 0.125 0.0357 0.0446 0.0714 0.0804 0.10702 0.12499 0.0357 0.0357 0.0803 0.0803 0.11596 0.11607 0.0803 0.0804 0.16056 0.15176 0.24085 0.22319 0.0357 0.0357 0.0802 0.0803 0.11596 0.11607 0.12488 0.10712 0.25868 0.20534 0.39248 0.30354 0.0357 0.0357 0.0804 0.0714 0.12489 0.0982 0.0981 0.0625 0.18732 0.12499 0.27652 0.18749 0.0446 0.0268 0.0981 0.0625 0.14273 0.0893 0.0446 0.0268 0.0893 0.0536 0.14272 0.0803 0.0446 0.0268 0.0981 0.0536 0.14273 0.0803 0.0536 0.0268 0.0981 0.0536 0.15163 0.0803 0.0446 0.0268 0.0981 0.0536 0.14273 0.0714 0.0981 0.0536 0.20516 0.0982 0.30329 0.14285 0.0536 0.0179 0.10702 0.0446 0.16057 0.0625 0.0536 0.0179 0.10702 0.0357 0.15163 0.0625 0.0536 0.0179 0.10702 0.0357 0.16057 0.0536 0.0536 0.0179 0.10702 0.0357 0.16056 0.0536 0.0536 0.0179 0.10702 0.0268 0.16949 0.0446 0.0536 0.0179 0.10702 0.0268 0.16056 0.0446 0.0536 0.0178 0.10702 0.0268 0.16949 0.0446 0.0536 9e-3 0.10702 0.0179 0.16056 0.0357 0.0625 9e-3 0.11596 0.0178 0.16948 0.0268 0.0625 9e-3 0.11597 0.0179 0.16949 0.0268 0.11595 0.0179 0.23192 0.0357 0.34789 0.0446 0.0625 9e-3 0.11596 0.0179 0.17839 0.0179 0.0536 0 0.11597 9e-3 0.17842 9e-3 0.0536 9e-3 0.11596 9e-3 0.16948 9e-3h0.1784c0.11596 0 0.23192 0 0.34789-9e-3 0.0625 0 0.11596-9e-3 0.1784-9e-3 0.16057-0.0179 0.32113-0.0357 0.4817-0.0536l0.0536-9e-3c0.0981-0.0179 0.20518-0.0357 0.3033-0.0625 0.0625-9e-3 0.11596-0.0179 0.16948-0.0357 0.0892-0.0179 0.18732-0.0446 0.27653-0.0714 0.0357-9e-3 0.0625-0.0179 0.0981-0.0268 0.14272-0.0357 0.28543-0.0893 0.42817-0.13392 0.47277-0.17857 0.91877-0.40176 1.3291-0.66067 0.14273-0.0893 0.27653-0.18748 0.41033-0.28569 0.0446-0.0357 0.0803-0.0625 0.1249-0.0982 0.1784-0.13392 0.33896-0.27678 0.49952-0.42854 0.16057-0.15178 0.31221-0.31248 0.45493-0.47318 0.0981-0.11607 0.19625-0.24106 0.28545-0.35712l0.0536-0.0714c0.11597-0.16069 0.23194-0.33033 0.33898-0.50889 0.0446-0.0714 0.0893-0.14284 0.1338-0.2232 0.0178-0.0446 0.0446-0.0893 0.0714-0.13392 0.0357-0.0714 0.0802-0.15177 0.11595-0.2232 0.0446-0.0982 0.0893-0.20534 0.13382-0.30356 0.0268-0.0536 0.0446-0.10712 0.0625-0.1607 0.0268-0.0536 0.0446-0.0982 0.0625-0.15177 0.0178-0.0536 0.0357-0.10713 0.0536-0.1607 0.0178-0.0536 0.0357-0.10713 0.0536-0.1607 0.0357-0.10713 0.0625-0.2232 0.0892-0.33034 0.0357-0.10713 0.0536-0.22319 0.0803-0.33033 9e-3 -0.0625 0.0268-0.11607 0.0357-0.16963 0.0179-0.11607 0.0357-0.23214 0.0446-0.34819 9e-3 -0.0536 0.0179-0.11606 0.0268-0.16964 0-0.0625 9e-3 -0.11606 9e-3 -0.17855 9e-3 -0.0536 9e-3 -0.11607 0.0179-0.17856zm0.33006-17.606v-0.16072c0-0.0536 9e-3 -0.10712 9e-3 -0.1607 0-0.0625-9e-3 -0.11606-9e-3 -0.16962v-0.16071c-9e-3 -0.0446-9e-3 -0.0982-0.0178-0.15177 0-0.0536-9e-3 -0.10712-9e-3 -0.16071-9e-3 -0.0536-9e-3 -0.10713-0.0178-0.1607-9e-3 -0.0536-0.0179-0.0982-0.0268-0.15178-9e-3 -0.0536-0.0178-0.10713-0.0268-0.1607-9e-3 -0.0446-0.0178-0.0982-0.0268-0.15178-0.0179-0.0982-0.0446-0.20534-0.0714-0.30354-9e-3 -0.0446-0.0268-0.0982-0.0357-0.15178-0.0178-0.0446-0.0357-0.0982-0.0446-0.14284-0.0179-0.0536-0.0357-0.0982-0.0536-0.15179-0.0179-0.0446-0.0268-0.0982-0.0446-0.14284-0.0179-0.0446-0.0357-0.0982-0.0625-0.14285-0.0179-0.0446-0.0357-0.0982-0.0536-0.14286-0.0179-0.0446-0.0446-0.0893-0.0625-0.14283-0.0179-0.0446-0.0446-0.0893-0.0625-0.13393-0.0268-0.0446-0.0446-0.0893-0.0714-0.14284-0.0179-0.0446-0.0446-0.0893-0.0714-0.13393-0.0178-0.0446-0.0446-0.0893-0.0714-0.13392-0.0536-0.0803-0.10702-0.16962-0.16056-0.2589-0.0536-0.0803-0.10702-0.16962-0.16949-0.24998-0.0268-0.0446-0.0536-0.0803-0.0893-0.12499-0.0268-0.0357-0.0625-0.0803-0.0892-0.11606-0.0357-0.0446-0.0625-0.0803-0.0981-0.11608-0.0268-0.0446-0.0625-0.0804-0.0981-0.11605-0.0268-0.0446-0.0625-0.0804-0.0981-0.11607-0.0357-0.0357-0.0714-0.0714-0.0981-0.11606-0.14273-0.14286-0.28546-0.2857-0.44602-0.41069-0.0357-0.0357-0.0714-0.0714-0.11596-0.0982-0.0714-0.0714-0.15165-0.13392-0.23193-0.19641-0.0802-0.0536-0.16949-0.11606-0.24977-0.16963-0.0803-0.0625-0.16947-0.11607-0.25867-0.16964-0.0446-0.0268-0.0892-0.0536-0.13381-0.0804-0.16949-0.0982-0.35681-0.18748-0.54413-0.27676-0.18733-0.0803-0.37466-0.1607-0.57089-0.22319-0.0981-0.0357-0.20518-0.0714-0.30329-0.0982-0.0446-9e-3 -0.0981-0.0268-0.15166-0.0357-0.0536-0.0179-0.0981-0.0268-0.15163-0.0357-0.15164-0.0357-0.3122-0.0714-0.46385-0.0893-0.0536-9e-3 -0.10702-0.0179-0.16057-0.0268-0.0536-9e-3 -0.10702-9e-3 -0.16056-0.0179-0.0536-9e-3 -0.10702-9e-3 -0.16056-0.0178-0.0536 0-0.10702 0-0.16949-9e-3 -3.4789-0.16963-6.4404 2.5177-6.6099 6.0085 0 0.0536-9e-3 0.10713-9e-3 0.1607v0.1607c0 0.10713 0 0.21428 9e-3 0.32141 0 0.0536 9e-3 0.10713 9e-3 0.1607 9e-3 0.0536 9e-3 0.10713 0.0179 0.16071 0 0.0536 9e-3 0.0982 0.0178 0.15178 9e-3 0.0536 9e-3 0.10713 0.0179 0.1607 0.0268 0.15177 0.0536 0.30355 0.0893 0.45532 0.0268 0.10713 0.0536 0.20535 0.0802 0.30355 9e-3 0.0536 0.0268 0.0982 0.0446 0.15178 0.0179 0.0446 0.0268 0.0982 0.0446 0.14285 0.0714 0.19642 0.14273 0.3839 0.22301 0.57138 0.0268 0.0446 0.0446 0.0982 0.0714 0.14285 0.0178 0.0446 0.0446 0.0893 0.0625 0.13392 0.0268 0.0446 0.0536 0.0893 0.0714 0.13393 0.0268 0.0446 0.0536 0.0893 0.0802 0.13392 0.0446 0.0893 0.0981 0.17855 0.15165 0.25891 0.0268 0.0446 0.0536 0.0893 0.0892 0.12499 0.0268 0.0446 0.0536 0.0893 0.0803 0.12499 0.0357 0.0446 0.0625 0.0893 0.0892 0.12499 0.0357 0.0446 0.0625 0.0803 0.0981 0.12499 0.0268 0.0357 0.0625 0.0803 0.0892 0.11606 0.0357 0.0357 0.0625 0.0803 0.0981 0.11606 0.23192 0.26784 0.48169 0.51783 0.75822 0.74103 0.0803 0.0625 0.16056 0.12499 0.24084 0.18749 0.0803 0.0625 0.16057 0.11606 0.24977 0.17855 0.0803 0.0536 0.16949 0.10713 0.24977 0.16071 0.0446 0.0268 0.0892 0.0536 0.1338 0.0803 0.1784 0.0982 0.35681 0.19641 0.54413 0.27676 0.18733 0.0893 0.38357 0.1607 0.57981 0.23213 0.14272 0.0446 0.29438 0.0893 0.44602 0.13392 0.0536 9e-3 0.10702 0.0268 0.16056 0.0357 0.3568 0.0803 0.72254 0.13392 1.1061 0.15177 0.10702 9e-3 0.21409 9e-3 0.33005 9e-3 0.21408 0 0.42818-9e-3 0.63333-0.0357 0.0536 0 0.10702-9e-3 0.16056-0.0179 0.0981-9e-3 0.20518-0.0268 0.31222-0.0446 0.50845-0.0893 1.008-0.24999 1.4718-0.45533 0.13382-0.0625 0.27653-0.13392 0.41033-0.20534 0.13381-0.0714 0.2587-0.15177 0.39251-0.23213 0.21407-0.13392 0.41924-0.28569 0.60657-0.44639 0.0803-0.0625 0.16056-0.13392 0.23192-0.19642 0.0803-0.0714 0.15165-0.14285 0.22301-0.21428 0.0357-0.0357 0.0714-0.0714 0.10702-0.10712 0.0981-0.10713 0.20516-0.2232 0.29437-0.33928 0.0357-0.0357 0.0714-0.0803 0.0981-0.11605 0.22301-0.27677 0.41925-0.58033 0.58874-0.8928 0.0446-0.0893 0.0981-0.17855 0.14272-0.27678 0.0446-0.0893 0.0804-0.17854 0.12489-0.27676 0.0981-0.24106 0.18732-0.48211 0.25868-0.73209 0.0446-0.15177 0.0803-0.30355 0.10702-0.46425 9e-3 -0.0536 0.0268-0.0982 0.0357-0.15178 9e-3 -0.0536 0.0178-0.10712 0.0178-0.1607 9e-3 -0.0536 0.0179-0.10712 0.0268-0.1607 9e-3 -0.0536 9e-3 -0.10712 0.0178-0.16071 9e-3 -0.10713 0.0179-0.21427 0.0268-0.32141zm0.33005-16.267c0-0.0982 9e-3 -0.20535 9e-3 -0.30356 0-0.34819-0.0357-0.68745-0.0981-1.0267-0.0178-0.0893-0.0357-0.18749-0.0536-0.27678-0.0268-0.0982-0.0446-0.18748-0.0714-0.28569-0.0268-0.0893-0.0536-0.17856-0.0892-0.26784-9e-3 -0.0446-0.0268-0.0893-0.0446-0.13392-0.0178-0.0446-0.0357-0.0893-0.0536-0.13391-0.0357-0.0893-0.0714-0.17856-0.10702-0.25891-0.0357-0.0893-0.0803-0.16963-0.12489-0.25893-0.0625-0.12499-0.1338-0.24997-0.20516-0.36603-0.0714-0.125-0.15165-0.24106-0.23193-0.35712-0.10701-0.15178-0.223-0.29462-0.34789-0.43747-0.0536-0.0714-0.11596-0.14286-0.18732-0.20535-0.0268-0.0357-0.0625-0.0714-0.0981-0.10712-0.0446-0.0446-0.0981-0.0982-0.14272-0.14285-0.0536-0.0446-0.10702-0.0982-0.16057-0.14285-0.0892-0.0803-0.18732-0.15177-0.27653-0.2232-0.0357-0.0268-0.0713-0.0536-0.0981-0.0714-0.0625-0.0446-0.12487-0.0893-0.18731-0.1339-0.0893-0.0625-0.18733-0.125-0.28546-0.17857-0.0625-0.0446-0.12488-0.0803-0.19623-0.11606-0.0357-0.0179-0.0803-0.0446-0.1249-0.0625-0.0357-0.0268-0.0803-0.0446-0.12487-0.0625-0.0714-0.0357-0.13381-0.0625-0.20518-0.0982-0.10702-0.0446-0.21408-0.0893-0.32112-0.125-0.10702-0.0357-0.20516-0.0714-0.3122-0.10712-0.11597-0.0357-0.23193-0.0625-0.35682-0.0982-0.0981-0.0179-0.20516-0.0446-0.31221-0.0625-0.24084-0.0446-0.49061-0.0714-0.74037-0.0803-0.0981-9e-3 -0.20516-9e-3 -0.30328-9e-3 -0.15165 0-0.29437 9e-3 -0.44602 0.0178-0.0981 9e-3 -0.19624 0.0179-0.28544 0.0268-0.15165 0.0179-0.29437 0.0446-0.43709 0.0714-0.46385 0.0982-0.91879 0.2589-1.347 0.45532-0.12488 0.0625-0.24977 0.13392-0.37465 0.20535-0.0803 0.0446-0.16056 0.0893-0.24084 0.14283-0.15165 0.0982-0.30329 0.20535-0.45493 0.32142-0.0357 0.0357-0.0714 0.0625-0.10702 0.0893-0.0357 0.0268-0.0714 0.0625-0.10702 0.0893-0.10702 0.0982-0.21409 0.18748-0.31222 0.28569-0.0268 0.0357-0.0625 0.0714-0.0981 0.10713-0.0625 0.0625-0.12488 0.13392-0.18732 0.20535-0.0268 0.0357-0.0625 0.0714-0.0892 0.10712-0.0625 0.0714-0.11595 0.14285-0.1784 0.22321-0.0268 0.0357-0.0536 0.0714-0.0803 0.10712-0.0268 0.0446-0.0536 0.0804-0.0803 0.11608-0.0268 0.0446-0.0536 0.0803-0.0803 0.11605-0.0179 0.0446-0.0446 0.0804-0.0714 0.125-0.0268 0.0357-0.0446 0.0804-0.0714 0.12498-0.0268 0.0357-0.0446 0.0803-0.0714 0.11608-0.0178 0.0446-0.0446 0.0893-0.0625 0.12498-0.0268 0.0446-0.0446 0.0893-0.0625 0.13392-0.0446 0.0803-0.0803 0.16964-0.12488 0.25892-0.0179 0.0446-0.0357 0.0893-0.0536 0.13392-0.0178 0.0446-0.0268 0.0893-0.0446 0.13391-0.0179 0.0446-0.0357 0.0893-0.0536 0.13392-9e-3 0.0446-0.0268 0.0893-0.0446 0.13393-9e-3 0.0536-0.0268 0.0982-0.0357 0.14283-0.0178 0.0446-0.0268 0.0893-0.0357 0.14286-0.0179 0.0446-0.0268 0.0893-0.0357 0.14284-0.0178 0.0446-0.0268 0.0893-0.0357 0.14285-9e-3 0.0446-0.0178 0.0893-0.0268 0.14285-9e-3 0.0446-0.0178 0.0982-0.0268 0.14285 0 0.0536-9e-3 0.0982-0.0178 0.15177-9e-3 0.0446-9e-3 0.0982-0.0179 0.14285 0 0.0536-9e-3 0.0982-9e-3 0.15178-9e-3 0.0536-9e-3 0.0982-9e-3 0.15177-9e-3 0.0446-9e-3 0.0982-9e-3 0.15177v0.14285 0.15178c0 0.0536 9e-3 0.0982 9e-3 0.15178 0 0.0446 9e-3 0.0982 9e-3 0.14284 0 0.0536 9e-3 0.0982 9e-3 0.15178 9e-3 0.0446 0.0179 0.0982 0.0179 0.14285 9e-3 0.0446 0.0178 0.0982 0.0268 0.14285 0.0178 0.14284 0.0446 0.28568 0.0803 0.42854 0.0179 0.0982 0.0446 0.18749 0.0714 0.27676 9e-3 0.0446 0.0268 0.0982 0.0357 0.14285 0.0536 0.16963 0.11597 0.33034 0.18733 0.49104 0.0179 0.0625 0.0446 0.11606 0.0714 0.16963 0.0357 0.0893 0.0803 0.16962 0.11596 0.25892 0.0357 0.0625 0.0803 0.13392 0.11596 0.19641 0.0268 0.0625 0.0625 0.11606 0.0981 0.16963 0.0268 0.0536 0.0625 0.10712 0.0981 0.16962 0.0714 0.0982 0.14272 0.19642 0.21409 0.29463 0.0357 0.0536 0.0803 0.10713 0.12487 0.1607 0.0446 0.0625 0.0981 0.125 0.14273 0.17857 0.14273 0.1607 0.28544 0.30355 0.42817 0.44639 0.0536 0.0446 0.0981 0.0893 0.14272 0.12499 0.0803 0.0714 0.15164 0.13392 0.23193 0.19642 0.29437 0.23212 0.6155 0.43747 0.94555 0.6071 0.1338 0.0625 0.25868 0.125 0.39248 0.17856 0.25869 0.11607 0.53522 0.20534 0.82066 0.27677 0.0446 0.0178 0.0893 0.0268 0.1338 0.0357 0.0536 9e-3 0.0981 0.0179 0.15165 0.0357 0.0446 9e-3 0.0892 0.0178 0.14272 0.0268 0.0981 0.0178 0.18732 0.0268 0.29436 0.0446 0.0446 0 0.0981 9e-3 0.14273 9e-3 0.0536 9e-3 0.0981 9e-3 0.15165 0.0178 0.0446 0 0.0981 9e-3 0.15164 9e-3 0.0446 0 0.0981 0 0.15164 9e-3h0.14272c0.0536 0 0.10702 0 0.15165-9e-3h0.15164c0.0446 0 0.0981-9e-3 0.14273-9e-3 0.0536-9e-3 0.0981-9e-3 0.15164-0.0178 0.0446 0 0.0981-9e-3 0.14272-0.0179 0.0446 0 0.0981-9e-3 0.14273-0.0178 0.1338-0.0179 0.2676-0.0446 0.4014-0.0714l0.0625-0.0178c0.0714-0.0179 0.1338-0.0357 0.20516-0.0536 0.0625-0.0179 0.11597-0.0357 0.17841-0.0536 0.1784-0.0536 0.35681-0.11606 0.5263-0.19641 0.0892-0.0357 0.1784-0.0714 0.25868-0.11607 0.0714-0.0268 0.1338-0.0625 0.19624-0.0982 0.0625-0.0268 0.12489-0.0625 0.1784-0.0982 0.0803-0.0446 0.16057-0.0982 0.24085-0.14285 0.0893-0.0625 0.17841-0.11606 0.26762-0.17856 0.0625-0.0536 0.12487-0.0982 0.19623-0.15178 0.10702-0.0803 0.21409-0.16963 0.32112-0.26784 0.0625-0.0625 0.13382-0.12499 0.19625-0.19641 0.1338-0.125 0.2587-0.26784 0.38357-0.41069 0.0892-0.10713 0.16949-0.2232 0.25869-0.33927 0.0536-0.0714 0.10702-0.15176 0.15164-0.23211 0.0268-0.0357 0.0536-0.0803 0.0803-0.11607 0.11596-0.20535 0.23193-0.41069 0.33004-0.62496 0.13383-0.30355 0.24978-0.62497 0.33006-0.95529 0.0981-0.37497 0.16056-0.76781 0.17841-1.1696zm0.27652-14.99c9e-3 -0.0446 9e-3 -0.0982 9e-3 -0.14285v-0.13392-0.14285c0-0.0446-9e-3 -0.0893-9e-3 -0.13391 0-0.0446 0-0.0893-9e-3 -0.13392 0-0.0446-9e-3 -0.0893-9e-3 -0.13392-9e-3 -0.0446-9e-3 -0.0893-0.0179-0.13392-9e-3 -0.0446-9e-3 -0.0893-0.0178-0.13393-9e-3 -0.0446-0.0179-0.0893-0.0179-0.13391-9e-3 -0.0446-0.0179-0.0893-0.0268-0.12499-9e-3 -0.0446-0.0178-0.0893-0.0268-0.13392-0.0178-0.0446-0.0268-0.0893-0.0357-0.12499-9e-3 -0.0446-0.0268-0.0893-0.0357-0.13393-0.0268-0.0803-0.0446-0.16069-0.0802-0.24998-0.0268-0.0803-0.0536-0.16071-0.0893-0.24106-9e-3 -0.0446-0.0268-0.0803-0.0446-0.12498-0.0179-0.0357-0.0357-0.0803-0.0536-0.11607-0.0178-0.0446-0.0357-0.0803-0.0536-0.11606-0.0178-0.0446-0.0357-0.0804-0.0625-0.11607-0.0178-0.0446-0.0357-0.0803-0.0536-0.11606-0.0268-0.0357-0.0446-0.0804-0.0714-0.11605-0.0179-0.0357-0.0357-0.0714-0.0625-0.10713-0.0179-0.0446-0.0446-0.08035-0.0714-0.11608-0.0179-0.03571-0.0446-0.07142-0.0714-0.10713-0.0892-0.14285-0.19624-0.27676-0.30327-0.41068-0.0268-0.03571-0.0536-0.07142-0.0804-0.0982-0.0892-0.0982-0.17839-0.18749-0.2676-0.2857-0.0268-0.02678-0.0625-0.06249-0.0893-0.08927-0.0357-0.02678-0.0625-0.06249-0.0981-0.08927-0.0625-0.05356-0.12489-0.11606-0.19625-0.16963-0.0625-0.05356-0.1338-0.10713-0.19624-0.1607-0.0803-0.06249-0.16949-0.11608-0.24977-0.16964-0.0357-0.02678-0.0803-0.05356-0.11597-0.08034-0.0803-0.04464-0.16948-0.0982-0.24976-0.14285-0.0536-0.02678-0.10702-0.06249-0.16056-0.08927-0.11596-0.05356-0.23193-0.11606-0.3568-0.1607-0.0625-0.03571-0.13381-0.06249-0.20518-0.08927-0.0536-0.01786-0.10702-0.03571-0.16056-0.05356-0.11596-0.03571-0.23192-0.07141-0.35681-0.10714-0.0981-0.02677-0.20516-0.05355-0.3122-0.0714-0.0714-0.01785-0.14273-0.02677-0.22301-0.0357-0.18732-0.0357-0.37464-0.05355-0.56197-0.06248-0.0981 0-0.18734-0.0089-0.27653-0.0089-0.47278 0-0.9277 0.06248-1.3648 0.17856-0.0625 0.01785-0.12488 0.0357-0.18732 0.05355-0.17841 0.05355-0.35681 0.11608-0.5263 0.19643-0.0357 0.0086-0.0802 0.02678-0.11597 0.04464-0.0981 0.04464-0.18732 0.08927-0.27651 0.13392-0.0536 0.02678-0.0981 0.05356-0.15165 0.08035-0.0446 0.03571-0.0981 0.06249-0.15164 0.08927-0.0714 0.04464-0.14273 0.08927-0.21409 0.14285-0.0981 0.06249-0.19624 0.13392-0.28545 0.20535-0.15164 0.11606-0.28544 0.23213-0.41924 0.35712-0.0446 0.04464-0.0893 0.08927-0.13382 0.13392-0.0446 0.05356-0.0892 0.0982-0.1338 0.14285-0.0268 0.03571-0.0625 0.06249-0.0893 0.0982-0.0536 0.06249-0.10702 0.13391-0.16056 0.19642-0.1338 0.16963-0.25868 0.34818-0.37464 0.53566-0.0268 0.0536-0.0625 0.10712-0.0893 0.16071-0.0803 0.13392-0.14274 0.27676-0.21409 0.41068-0.0893 0.21428-0.16949 0.43747-0.24086 0.66067-0.0178 0.0625-0.0357 0.11606-0.0536 0.17857-0.0893 0.35711-0.15164 0.73208-0.16948 1.116-9e-3 0.0893-9e-3 0.1875-9e-3 0.27677 0 0.23214 0.0178 0.46426 0.0446 0.69638 9e-3 0.0714 0.0268 0.15178 0.0357 0.2232 0.0179 0.10712 0.0446 0.20534 0.0625 0.31248 0.0268 0.10713 0.0536 0.21426 0.0892 0.31247l0.0268 0.0803c0.0268 0.0982 0.0625 0.18748 0.0981 0.28568 0.0268 0.0714 0.0536 0.14286 0.0893 0.21428 0.0357 0.0803 0.0714 0.16962 0.11597 0.24998 0.0179 0.0357 0.0357 0.0714 0.0536 0.11607 0.0178 0.0357 0.0446 0.0714 0.0625 0.0982 0.0446 0.0893 0.0892 0.16964 0.14272 0.24999 0.0357 0.0625 0.0804 0.11606 0.11596 0.17855 0.0625 0.0893 0.12488 0.16964 0.18732 0.25891 0.0625 0.0804 0.12489 0.15179 0.19625 0.23213 0.0446 0.0625 0.0981 0.11607 0.15164 0.16963 0.0357 0.0357 0.0625 0.0714 0.0981 0.10713 0.15165 0.15178 0.31221 0.29463 0.48169 0.42854 0.0714 0.0446 0.13381 0.0982 0.20517 0.15178 0.0357 0.0268 0.0714 0.0446 0.10702 0.0714 0.0714 0.0536 0.14272 0.0982 0.22301 0.14285 0.0446 0.0268 0.0981 0.0625 0.15163 0.0893 0.13381 0.0803 0.27654 0.15178 0.41926 0.21428 0.0803 0.0357 0.16056 0.0714 0.24085 0.0982 0.12488 0.0536 0.24976 0.0982 0.37464 0.13392 0.0446 0.0178 0.0892 0.0268 0.13382 0.0357 0.0803 0.0268 0.16947 0.0536 0.25868 0.0714 0.0803 0.0179 0.16948 0.0357 0.25867 0.0536 0.0446 9e-3 0.0893 0.0178 0.13382 0.0178 0.0446 9e-3 0.0892 0.0179 0.1338 0.0179 0.0446 9e-3 0.0981 0.0179 0.14271 0.0179 0.0446 9e-3 0.0893 9e-3 0.13381 0.0179 0.0446 0 0.0892 0 0.14272 9e-3h0.1338 0.27654c0.0446 0 0.0892 0 0.1338-9e-3 0.0892 0 0.17841-9e-3 0.2676-0.0179 0.0446 0 0.0893-9e-3 0.1338-0.0179 0.0446 0 0.0893-9e-3 0.13382-0.0179 0.0892-9e-3 0.1784-0.0268 0.2676-0.0446 0.0802-0.0179 0.16947-0.0357 0.25868-0.0625 0.0357-9e-3 0.0803-0.0179 0.1249-0.0357 0.0446-9e-3 0.0803-0.0179 0.12487-0.0357 0.0446-9e-3 0.0803-0.0268 0.12488-0.0357 0.0446-0.0179 0.0803-0.0357 0.12489-0.0446 0.0803-0.0357 0.16056-0.0625 0.24084-0.0982 0.0446-0.0178 0.0803-0.0357 0.12489-0.0536 0.11596-0.0536 0.23192-0.10713 0.34787-0.16964 0.0357-0.0268 0.0714-0.0446 0.10702-0.0625 0.0357-0.0268 0.0803-0.0446 0.11597-0.0714 0.0357-0.0179 0.0714-0.0446 0.10702-0.0625 0.10702-0.0714 0.21409-0.14284 0.32113-0.2232 0.0357-0.0268 0.0625-0.0536 0.0981-0.0803 0.0714-0.0536 0.13381-0.10713 0.20518-0.1607 0.0268-0.0268 0.0625-0.0625 0.0892-0.0893 0.0625-0.0536 0.12489-0.11605 0.18733-0.17855 0.0625-0.0536 0.12488-0.11607 0.1784-0.18748l0.0893-0.0893c0.0268-0.0357 0.0536-0.0714 0.0803-0.0982 0.0268-0.0357 0.0536-0.0714 0.0803-0.10712 0.0268-0.0268 0.0536-0.0625 0.0803-0.0982 0.0268-0.0357 0.0536-0.0714 0.0802-0.10713 0.0179-0.0357 0.0446-0.0714 0.0714-0.10712 0.0268-0.0357 0.0446-0.0714 0.0714-0.10713 0.0268-0.0357 0.0446-0.0714 0.0714-0.10713 0.0179-0.0357 0.0446-0.0803 0.0625-0.11606 0.0268-0.0357 0.0446-0.0714 0.0625-0.10713 0.0268-0.0446 0.0446-0.0803 0.0625-0.11606 0.0178-0.0446 0.0357-0.0804 0.0625-0.12499 0.0179-0.0357 0.0357-0.0714 0.0536-0.11607 0.0179-0.0357 0.0357-0.0803 0.0536-0.11605 0.0179-0.0446 0.0268-0.0803 0.0446-0.125 0.0179-0.0446 0.0357-0.0803 0.0446-0.12499 0.0179-0.0357 0.0357-0.0803 0.0446-0.125 0.0179-0.0357 0.0357-0.0803 0.0446-0.12499 9e-3 -0.0446 0.0268-0.0803 0.0357-0.12498 0.0178-0.0446 0.0268-0.0893 0.0357-0.13393 9e-3 -0.0446 0.0268-0.0804 0.0357-0.12498 9e-3 -0.0446 0.0178-0.0893 0.0268-0.13393 9e-3 -0.0446 0.0178-0.0893 0.0268-0.13391 9e-3 -0.0446 9e-3 -0.0893 0.0179-0.13392 9e-3 -0.0446 0.0179-0.0893 0.0179-0.13393 9e-3 -0.0446 9e-3 -0.0893 0.0178-0.13392 0-0.0446 9e-3 -0.0982 9e-3 -0.14284 9e-3 -0.0446 9e-3 -0.0893 9e-3 -0.13391zm-21.507 39.846 0.78498 0.45533 0.78498 0.45534v1.8124l-0.78498 0.45532-0.78498 0.4464-0.78498-0.4464-0.78498-0.45532v-1.8124l0.78498-0.45534zm-0.06248-59.291 1.1953 0.68746 0.94554 0.55353 2.1498 1.241v4.955l-2.1498 1.241-0.78498 0.45532-1.3559 0.78566-4.2995-2.482v-4.955l2.1498-1.241 0.71361-0.41962zm-0.16949 12.633 3.8892 2.2498v4.4818l-3.8892 2.2498-1.9357-1.1249-1.9446-1.1249v-4.4818l1.9446-1.1249zm0.23193 11.356 0.5709 0.33033 1.1418 0.66067 1.7038 0.991v3.9551l-1.7038 0.99101-1.7127 0.98208-1.7127-0.98208-1.7127-0.99101v-3.9551l2.8545-1.6517zm0 10.071 1.5521 0.90172 1.5521 0.8928v3.589l-1.5521 0.89279-0.90094 0.51782-0.65118 0.38391-1.5521-0.90173-1.5521-0.89279v-3.589l0.77606-0.44641 0.77606-0.44639zm0 9.6958 0.40141 0.23213 0.70469 0.41069 1.0972 0.63388v2.5534l-1.0972 0.64281-0.70469 0.40176-0.40141 0.23214-1.1061-0.6339-1.1061-0.64281v-2.5534l1.1061-0.63388zm0.90986 9.1155 0.90986 0.52675v2.0981l-1.8197 1.0535-1.8197-1.0535v-2.0981l1.8197-1.0535zm27.688 42.06 3.577-2.0713 3.577-2.0624v-8.2673l-3.577-2.0713-3.577-2.0624-3.577 2.0624-3.577 2.0713v8.2673l3.577 2.0624 1.6592 0.96423zm0-19.222 3.3451-1.9374 3.3451-1.9284v-7.7316l-3.3451-1.9374-3.3451-1.9284-3.3451 1.9284-3.3451 1.9374v7.7316l3.3451 1.9284zm6.2174-21.722v-7.187l-3.1132-1.7945-3.1042-1.8034-3.1132 1.8034-3.1042 1.7945v7.187l3.1043 1.7945 3.1132 1.7945 3.1042-1.7945zm-6.2174-13.303 5.6554-3.2676v-6.5353l-2.8277-1.6428-2.8277-1.6338-2.8366 1.6338-2.8277 1.6428v6.5353l2.8278 1.6338zm5.2718-18.454v-6.0978l-2.6404-1.5267-1.7573-1.0178-0.87417-0.49996-0.88311 0.49996-1.7573 1.0178-2.6404 1.5267v6.0978l2.6404 1.5178 2.6404 1.5267 2.6315-1.5267z" fill="#1e242e" fill-rule="evenodd"/></g></svg>
