<?xml version="1.0" encoding="UTF-8"?>
<svg width="30.036mm" height="23.428mm" version="1.1" viewBox="0 0 30.036 23.428" xml:space="preserve" xmlns="http://www.w3.org/2000/svg"><g transform="translate(-60.722 -116.62)"><g transform="matrix(.26458 0 0 .26458 60.722 116.09)" fill="#00632e" fillRule="evenodd"><path d="m107.03 58.058c-4.6503 3.853-25.86 16.017-31.607 13.335 0.11342-0.98214 16.295-2.9087 19.736-21.834 2.6087-14.43 22.836-0.4533 11.872 8.4993z"/><path d="m84.614 38.113c-1.2477 5.8929-10.095 28.671-16.257 30.182-0.56712-0.83105 10.851-12.466 1.6635-29.351-7.0322-12.919 17.467-14.694 14.594-0.83105z"/><path d="m104.54 90.469c-6.0114-0.7555-29.452-7.6683-31.456-13.712 0.79396-0.6044 13.346 9.8215 29.452-0.7555 12.25-8.0838 16.068 16.205 2.0038 14.468z"/><path d="m32.061 59.192c12.817-1.851 13.611-1.2466 16.182 11.824 0.86958 4.4197-2.1172 0.6044 1.172 10.879 0.71835 2.1909 1.3989 2.7198 3.3271 3.0975 4.5369 0.83105 13.686-1.2088 16.257-4.4574 1.0964-1.3599-0.56712-6.9883-1.0208-8.6504-0.94519-3.4753-1.0208 0.3022-2.155-5.4018-1.8526-8.9149-1.2477-7.1772-0.64273-15.714 1.4745-20.361-14.064-37.284-31.229-45.632-1.5501-0.71772-11.04-5.4018-10.7-1.7376 0.34027 3.9664 11.683 9.9726 16.787 24.025 3.6673 10.161-12.968 8.6882-14.405 12.315-0.18904 0.49107-0.34027 1.0955-0.41588 1.7754l-25.218 4.9485c0.22685 5.0996 1.172 10.01 2.76 14.619l24.84-5.3262c1.7013 3.2109 2.4197 3.7019 4.4613 3.4375zm12.023-3.7397c-3.0246-1.7376-10.548 0.67995-13.46 1.0199 0.94519 0.6044 10.851-1.171 13.46-1.0199zm-38.639-0.07555 0.26465 1.5865 30.019-6.535c-0.07561-0.1511 0-1.1332-0.07561-1.2843zm46.503 27.425c4.2345 0.49107 11.153-0.11332 14.14-3.9664 0.94519-1.2088-0.4915-6.1951-0.86958-7.6305-0.4915-1.8887-2.7222-2.6442-3.0246-3.6264-2.7978-9.1415 0.18904-14.846-1.1342-22.06-0.64273-3.4753-1.8904-7.8194-3.4027-11.181-4.6503-10.388-18.148-27.84-30.624-28.142 15.652 2.8709 34.405 27.085 33.082 45.179-0.41588 5.9684-0.86958 10.124 0.983 16.092 0.30246 0.94437 2.5331 1.7376 3.0246 3.5886 0.37808 1.4732 1.8148 6.4217 0.86958 7.6683-2.2685 2.9087-9.5653 4.3063-13.044 4.0797z"/>
    </g>
    </g>
</svg>
